<?xml version="1.0" encoding="utf-8"?>
<!-- Generator: Adobe Illustrator 22.1.0, SVG Export Plug-In . SVG Version: 6.00 Build 0)  -->
<svg version="1.1" id="Calque_1" xmlns="http://www.w3.org/2000/svg" xmlns:xlink="http://www.w3.org/1999/xlink" x="0px" y="0px"
	 viewBox="0 0 71.4 71.3" style="enable-background:new 0 0 71.4 71.3;" xml:space="preserve">
<style type="text/css">
	.st0{fill:#FDA601;}
	.st1{fill:#573A2D;}
</style>
<path class="st0" d="M33.8,71.3c-0.6,0-1-0.5-1-1.1l0,0c0-0.5,0.5-1,1-0.9l0,0c0.5,0,1,0.5,0.9,1.1l0,0
	C34.8,70.9,34.3,71.3,33.8,71.3L33.8,71.3L33.8,71.3z M36.8,70.4c0-0.6,0.4-1,0.9-1.1l0,0c0.5,0,1,0.4,1.1,0.9l0,0
	c0,0.5-0.4,1-0.9,1.1l0,0c0,0,0,0-0.1,0l0,0C37.3,71.3,36.9,70.9,36.8,70.4z M29.6,70.8L29.6,70.8L29.6,70.8
	c-0.5-0.1-0.9-0.6-0.8-1.2l0,0c0.1-0.5,0.6-0.9,1.2-0.8l0,0c0.5,0.1,0.9,0.6,0.8,1.2l0,0c-0.1,0.5-0.5,0.8-1,0.8l0,0
	C29.7,70.8,29.7,70.8,29.6,70.8z M40.9,70c-0.1-0.5,0.3-1.1,0.8-1.2l0,0c0.5-0.1,1.1,0.3,1.2,0.8l0,0c0.1,0.5-0.3,1.1-0.8,1.2l0,0
	c-0.1,0-0.1,0-0.2,0l0,0C41.4,70.8,40.9,70.5,40.9,70z M25.6,69.9c-0.5-0.2-0.8-0.7-0.7-1.2l0,0c0.2-0.5,0.7-0.8,1.2-0.7l0,0
	c0.5,0.1,0.8,0.7,0.7,1.2l0,0c-0.1,0.4-0.5,0.7-1,0.7l0,0C25.8,69.9,25.7,69.9,25.6,69.9z M44.8,69.2c-0.2-0.5,0.1-1.1,0.7-1.2l0,0
	c0.5-0.2,1.1,0.1,1.2,0.7l0,0c0.2,0.5-0.1,1.1-0.7,1.2l0,0c-0.1,0-0.2,0-0.3,0l0,0C45.3,69.9,44.9,69.6,44.8,69.2z M21.7,68.5
	c-0.5-0.2-0.7-0.8-0.5-1.3l0,0c0.2-0.5,0.8-0.7,1.3-0.5l0,0c0.5,0.2,0.7,0.8,0.5,1.3l0,0c-0.2,0.4-0.5,0.6-0.9,0.6l0,0
	C21.9,68.6,21.8,68.5,21.7,68.5z M48.6,67.9c-0.2-0.5,0-1.1,0.5-1.3l0,0c0.5-0.2,1.1,0,1.3,0.5l0,0c0.2,0.5,0,1.1-0.5,1.3l0,0
	c-0.1,0.1-0.3,0.1-0.4,0.1l0,0C49.2,68.5,48.8,68.3,48.6,67.9z M18,66.6c-0.5-0.3-0.7-0.9-0.4-1.4l0,0c0.3-0.5,0.9-0.6,1.4-0.4l0,0
	c0.5,0.3,0.6,0.9,0.4,1.4l0,0c-0.2,0.3-0.5,0.5-0.9,0.5l0,0C18.3,66.8,18.1,66.7,18,66.6z M52.3,66.2c-0.3-0.5-0.1-1.1,0.4-1.4l0,0
	c0.5-0.3,1.1-0.1,1.4,0.4l0,0c0.3,0.5,0.1,1.1-0.4,1.4l0,0c-0.2,0.1-0.3,0.1-0.5,0.1l0,0C52.8,66.7,52.5,66.5,52.3,66.2z M14.5,64.4
	L14.5,64.4L14.5,64.4C14,64.1,14,63.5,14.3,63l0,0c0.3-0.4,0.9-0.5,1.4-0.2l0,0c0.4,0.3,0.5,1,0.2,1.4l0,0c-0.2,0.3-0.5,0.4-0.8,0.4
	l0,0C14.9,64.6,14.7,64.5,14.5,64.4z M55.7,64c-0.3-0.4-0.2-1.1,0.2-1.4l0,0c0.4-0.3,1.1-0.2,1.4,0.2l0,0c0.3,0.4,0.2,1.1-0.2,1.4
	l0,0l0,0l0,0c-0.2,0.1-0.4,0.2-0.6,0.2l0,0C56.2,64.4,55.9,64.3,55.7,64z M11.3,61.7c-0.4-0.4-0.4-1,0-1.4l0,0c0.4-0.4,1-0.4,1.4,0
	l0,0c0.4,0.4,0.4,1,0,1.4l0,0C12.5,61.9,12.2,62,12,62l0,0C11.8,62,11.5,61.9,11.3,61.7z M58.9,61.5c-0.4-0.4-0.4-1,0-1.4l0,0
	c0.4-0.4,1-0.4,1.4,0l0,0c0.4,0.4,0.4,1,0,1.4l0,0c-0.2,0.2-0.4,0.3-0.7,0.3l0,0C59.3,61.8,59.1,61.7,58.9,61.5z M8.5,58.7
	c-0.3-0.4-0.3-1.1,0.1-1.4l0,0C9,56.9,9.7,57,10,57.4l0,0c0.4,0.4,0.3,1-0.1,1.4l0,0C9.7,59,9.5,59,9.3,59l0,0
	C8.9,59,8.7,58.9,8.5,58.7z M61.7,58.7c-0.4-0.4-0.5-1-0.1-1.4l0,0c0.4-0.4,1-0.5,1.4-0.1l0,0c0.4,0.4,0.5,1,0.1,1.4l0,0l0,0l0,0
	c-0.2,0.2-0.5,0.4-0.8,0.4l0,0C62.1,58.9,61.9,58.8,61.7,58.7z M6,55.4c-0.3-0.5-0.2-1.1,0.3-1.4l0,0c0.5-0.3,1.1-0.2,1.4,0.3l0,0
	c0.3,0.5,0.2,1.1-0.3,1.4l0,0c-0.2,0.1-0.4,0.2-0.5,0.2l0,0C6.5,55.8,6.2,55.7,6,55.4z M64.2,55.5c-0.5-0.3-0.6-0.9-0.3-1.4l0,0
	c0.3-0.5,0.9-0.6,1.4-0.3l0,0c0.5,0.3,0.6,0.9,0.3,1.4l0,0c-0.2,0.3-0.5,0.5-0.8,0.5l0,0C64.6,55.7,64.4,55.6,64.2,55.5z M3.9,51.8
	L3.9,51.8L3.9,51.8c-0.2-0.5-0.1-1.1,0.4-1.3l0,0c0.5-0.2,1.1-0.1,1.3,0.4l0,0c0.2,0.5,0.1,1.1-0.4,1.3l0,0
	c-0.2,0.1-0.3,0.1-0.5,0.1l0,0C4.4,52.4,4.1,52.1,3.9,51.8z M66.3,52.1c-0.5-0.2-0.7-0.9-0.4-1.3l0,0c0.2-0.5,0.8-0.7,1.3-0.4l0,0
	c0.5,0.2,0.7,0.9,0.4,1.3l0,0c-0.2,0.4-0.5,0.6-0.9,0.6l0,0C66.6,52.2,66.5,52.1,66.3,52.1z M2.2,48c-0.2-0.5,0.1-1.1,0.6-1.3l0,0
	c0.5-0.2,1.1,0.1,1.3,0.6l0,0c0.2,0.5-0.1,1.1-0.6,1.3l0,0c-0.1,0-0.2,0.1-0.4,0.1l0,0C2.8,48.6,2.4,48.4,2.2,48z M68,48.4
	c-0.5-0.2-0.8-0.8-0.6-1.3l0,0c0.2-0.5,0.8-0.8,1.3-0.6l0,0c0.5,0.2,0.8,0.8,0.6,1.3l0,0c-0.1,0.4-0.5,0.7-0.9,0.7l0,0
	C68.2,48.5,68.1,48.4,68,48.4z M1,44c-0.1-0.5,0.2-1.1,0.7-1.2l0,0c0.5-0.1,1.1,0.2,1.2,0.7l0,0C3,44,2.7,44.6,2.2,44.7l0,0
	c-0.1,0-0.2,0-0.2,0l0,0C1.5,44.8,1.1,44.5,1,44z M69.3,44.6c-0.5-0.1-0.9-0.7-0.8-1.2l0,0c0.1-0.5,0.7-0.9,1.2-0.7l0,0
	c0.5,0.1,0.9,0.7,0.7,1.2l0,0l0,0l0,0c-0.1,0.5-0.5,0.8-1,0.8l0,0C69.4,44.6,69.3,44.6,69.3,44.6z M0.3,39.9c-0.1-0.5,0.3-1,0.9-1.1
	l0,0c0.5-0.1,1,0.3,1.1,0.9l0,0c0.1,0.5-0.3,1-0.9,1.1l0,0H1.3l0,0C0.8,40.8,0.3,40.4,0.3,39.9z M70.1,40.6
	c-0.5-0.1-0.9-0.5-0.9-1.1l0,0c0.1-0.5,0.6-0.9,1.1-0.9l0,0c0.5,0.1,0.9,0.6,0.9,1.1l0,0l0,0l0,0C71.1,40.2,70.7,40.6,70.1,40.6
	L70.1,40.6C70.1,40.6,70.1,40.6,70.1,40.6z M0,35.8L0,35.8L0,35.8c0-0.1,0-0.1,0-0.1l0,0l0,0l0,0c0-0.6,0.5-1,1-1l0,0
	c0.6,0,1,0.4,1,1l0,0c0,0,0,0,0,0.1l0,0c0,0,0,0,0,0.1l0,0c0,0.6-0.4,1-1,1l0,0l0,0l0,0C0.5,36.8,0,36.4,0,35.8z M69.4,35.6
	c0-0.6,0.4-1,1-1l0,0c0.5,0,1,0.5,1,1l0,0c0,0.6-0.5,1-1,1l0,0C69.9,36.6,69.4,36.1,69.4,35.6z M1.1,32.6c-0.5-0.1-0.9-0.6-0.9-1.1
	l0,0c0.1-0.5,0.6-0.9,1.1-0.9l0,0c0.5,0.1,0.9,0.6,0.9,1.1l0,0C2.1,32.2,1.7,32.6,1.1,32.6L1.1,32.6C1.2,32.6,1.2,32.6,1.1,32.6z
	 M69.2,31.7c-0.1-0.5,0.3-1,0.9-1.1l0,0c0.5-0.1,1,0.3,1.1,0.9l0,0c0.1,0.6-0.3,1.1-0.9,1.1l0,0h-0.1l0,0
	C69.7,32.6,69.2,32.2,69.2,31.7z M1.7,28.6c-0.5-0.1-0.9-0.7-0.7-1.2l0,0l0,0l0,0c0.1-0.5,0.7-0.9,1.2-0.7l0,0
	c0.5,0.1,0.9,0.7,0.7,1.2l0,0c-0.1,0.5-0.5,0.8-1,0.8l0,0C1.9,28.7,1.8,28.7,1.7,28.6z M68.5,27.8L68.5,27.8
	c-0.1-0.5,0.2-1.1,0.8-1.2l0,0c0.5-0.1,1.1,0.2,1.2,0.7l0,0c0.1,0.5-0.2,1.1-0.7,1.2l0,0c-0.1,0-0.2,0-0.2,0l0,0
	C69,28.6,68.6,28.3,68.5,27.8z M2.8,24.7c-0.5-0.2-0.8-0.8-0.6-1.3l0,0c0.2-0.5,0.8-0.8,1.3-0.6l0,0C4,23,4.3,23.6,4.1,24.1l0,0
	c-0.2,0.4-0.5,0.6-1,0.6l0,0C3,24.8,2.9,24.8,2.8,24.7z M67.4,24.1c-0.2-0.5,0.1-1.1,0.6-1.3l0,0c0.5-0.2,1.1,0.1,1.3,0.6l0,0
	c0.2,0.5-0.1,1.1-0.6,1.3l0,0c-0.1,0-0.2,0.1-0.3,0.1l0,0C67.9,24.7,67.5,24.5,67.4,24.1z M4.3,21c-0.5-0.2-0.7-0.9-0.4-1.4l0,0
	c0.2-0.5,0.8-0.7,1.3-0.4l0,0c0.5,0.2,0.7,0.9,0.5,1.3l0,0c-0.2,0.4-0.5,0.6-0.9,0.6l0,0C4.6,21.1,4.4,21.1,4.3,21z M65.8,20.5
	L65.8,20.5c-0.2-0.5-0.1-1.1,0.4-1.3l0,0c0.5-0.2,1.1,0,1.3,0.4l0,0c0.2,0.5,0,1.1-0.4,1.3l0,0C66.9,21,66.8,21,66.6,21l0,0
	C66.3,21,66,20.8,65.8,20.5z M6.2,17.4c-0.5-0.3-0.6-0.9-0.3-1.4l0,0c0.3-0.5,0.9-0.6,1.4-0.3l0,0c0.5,0.3,0.6,0.9,0.3,1.4l0,0
	c-0.2,0.3-0.5,0.4-0.8,0.4l0,0C6.5,17.6,6.3,17.6,6.2,17.4z M63.8,17.1c-0.3-0.5-0.2-1.1,0.3-1.4l0,0c0.5-0.3,1.1-0.2,1.4,0.3l0,0
	c0.3,0.5,0.2,1.1-0.3,1.4l0,0c-0.2,0.1-0.4,0.2-0.5,0.2l0,0C64.3,17.6,64,17.4,63.8,17.1z M8.5,14.1c-0.4-0.4-0.5-1-0.1-1.4l0,0
	c0.3-0.4,1-0.5,1.4-0.1l0,0c0.4,0.4,0.5,1,0.1,1.4l0,0c-0.2,0.2-0.5,0.4-0.8,0.4l0,0C8.9,14.4,8.7,14.3,8.5,14.1z M61.5,14
	c-0.4-0.4-0.3-1,0.1-1.4l0,0c0.4-0.4,1-0.3,1.4,0.1l0,0l0,0l0,0c0.4,0.4,0.3,1.1-0.1,1.4l0,0c-0.2,0.2-0.4,0.2-0.6,0.2l0,0
	C62,14.3,61.7,14.2,61.5,14z M11.2,11.1c-0.4-0.4-0.4-1,0-1.4l0,0c0.4-0.4,1-0.4,1.4,0l0,0c0.4,0.4,0.4,1,0,1.4l0,0
	c-0.2,0.2-0.4,0.3-0.7,0.3l0,0C11.6,11.4,11.4,11.3,11.2,11.1z M58.8,11.1c-0.4-0.4-0.4-1,0-1.4l0,0c0.4-0.4,1-0.4,1.4,0l0,0
	c0.4,0.4,0.4,1,0,1.4l0,0c-0.2,0.2-0.5,0.3-0.7,0.3l0,0C59.2,11.4,59,11.3,58.8,11.1z M14.2,8.4C13.9,8,14,7.3,14.4,7l0,0
	c0.4-0.3,1.1-0.2,1.4,0.2l0,0c0.3,0.4,0.2,1.1-0.2,1.4l0,0c-0.2,0.1-0.4,0.2-0.6,0.2l0,0C14.7,8.8,14.4,8.7,14.2,8.4z M55.8,8.6
	c-0.4-0.3-0.5-0.9-0.2-1.4l0,0c0.3-0.4,1-0.5,1.4-0.2l0,0c0.5,0.3,0.5,1,0.2,1.4l0,0c-0.2,0.3-0.5,0.4-0.8,0.4l0,0
	C56.2,8.8,56,8.7,55.8,8.6z M17.5,6.1c-0.3-0.5-0.1-1.1,0.4-1.4l0,0l0,0l0,0c0.5-0.3,1.1-0.1,1.4,0.4l0,0c0.3,0.5,0.1,1.1-0.4,1.4
	l0,0c-0.2,0.1-0.3,0.1-0.5,0.1l0,0C18,6.6,17.7,6.4,17.5,6.1z M52.5,6.5L52.5,6.5c-0.5-0.3-0.6-0.9-0.4-1.4l0,0
	c0.3-0.5,0.9-0.7,1.4-0.4l0,0l0,0l0,0C54,5,54.1,5.6,53.9,6.1l0,0c-0.2,0.3-0.5,0.5-0.9,0.5l0,0C52.9,6.6,52.7,6.5,52.5,6.5z
	 M21,4.2c-0.2-0.5,0-1.1,0.5-1.3l0,0c0.5-0.2,1.1,0,1.3,0.5l0,0c0.2,0.5,0,1.1-0.5,1.3l0,0c-0.1,0.1-0.3,0.1-0.4,0.1l0,0
	C21.6,4.8,21.2,4.6,21,4.2z M49,4.7c-0.5-0.2-0.7-0.8-0.5-1.3l0,0c0.2-0.5,0.8-0.7,1.3-0.5l0,0c0.5,0.2,0.7,0.8,0.5,1.3l0,0
	c-0.2,0.4-0.5,0.6-0.9,0.6l0,0C49.3,4.8,49.2,4.8,49,4.7z M24.8,2.7c-0.2-0.5,0.1-1.1,0.7-1.2l0,0c0.5-0.2,1.1,0.1,1.2,0.7l0,0
	c0.2,0.5-0.1,1.1-0.7,1.2l0,0c-0.1,0-0.2,0-0.3,0l0,0C25.3,3.4,24.9,3.1,24.8,2.7z M45.3,3.4L45.3,3.4c-0.5-0.2-0.8-0.7-0.7-1.2l0,0
	c0.2-0.5,0.7-0.8,1.2-0.7l0,0c0.5,0.1,0.8,0.7,0.7,1.2l0,0c-0.1,0.4-0.5,0.7-1,0.7l0,0C45.5,3.4,45.4,3.4,45.3,3.4z M28.7,1.7
	c-0.1-0.5,0.3-1.1,0.8-1.2l0,0l0,0l0,0c0.5-0.1,1.1,0.3,1.2,0.8l0,0c0.1,0.5-0.3,1.1-0.8,1.2l0,0c-0.1,0-0.1,0-0.2,0l0,0
	C29.2,2.5,28.8,2.2,28.7,1.7z M41.5,2.5L41.5,2.5c-0.5-0.1-0.9-0.6-0.8-1.2l0,0c0.1-0.5,0.6-0.9,1.2-0.8l0,0l0,0l0,0
	c0.5,0.1,0.9,0.6,0.8,1.2l0,0c-0.1,0.5-0.5,0.8-1,0.8l0,0C41.6,2.5,41.6,2.5,41.5,2.5z M32.7,1.1c0-0.5,0.4-1,0.9-1l0,0l0,0l0,0
	c0.5,0,1,0.4,1.1,0.9l0,0c0,0.5-0.4,1-0.9,1.1l0,0c0,0,0,0-0.1,0l0,0C33.1,2,32.7,1.6,32.7,1.1z M37.6,2L37.6,2c-0.6,0-1-0.5-0.9-1
	l0,0c0-0.6,0.5-1,1.1-1l0,0c0.5,0,1,0.5,0.9,1.1l0,0C38.7,1.6,38.2,2,37.6,2L37.6,2C37.7,2,37.7,2,37.6,2z"/>
<path class="st1" d="M43.6,48.5c-0.1,0-0.2,0-0.2-0.1l-7.6-3.8l-7.6,3.8c-0.1,0.1-0.3,0.1-0.4,0l-6.3-3.1c-0.2-0.1-0.3-0.4-0.2-0.7
	c0.1-0.2,0.4-0.3,0.7-0.2l6,3l7.6-3.8c0.1-0.1,0.3-0.1,0.4,0l7.6,3.8l6.1-3c0.2-0.1,0.5,0,0.7,0.2c0.1,0.2,0,0.5-0.2,0.7l-6.3,3.1
	C43.7,48.5,43.6,48.5,43.6,48.5z"/>
<path class="st1" d="M51.4,37.8c-0.3,0-0.5-0.2-0.5-0.5V15l-7.1,3.6c-0.1,0.1-0.3,0.1-0.4,0l-7.6-3.8l-7.6,3.8
	c-0.1,0.1-0.3,0.1-0.4,0L20.7,15v22.3c0,0.3-0.2,0.5-0.5,0.5s-0.5-0.2-0.5-0.5V14.2c0-0.2,0.1-0.3,0.2-0.4c0.1-0.1,0.3-0.1,0.5,0
	l7.6,3.8l7.6-3.8c0.1-0.1,0.3-0.1,0.4,0l7.6,3.8l7.6-3.8c0.2-0.1,0.3-0.1,0.5,0c0.1,0.1,0.2,0.3,0.2,0.4v23.1
	C51.9,37.5,51.7,37.8,51.4,37.8z"/>
<path class="st1" d="M42.1,39.5c-0.2,0-0.5,0-0.7,0c-0.3,0-0.5-0.3-0.5-0.5c0-0.3,0.3-0.5,0.5-0.5c0.3,0,0.6,0,0.9,0
	s0.5,0.2,0.5,0.5s-0.2,0.5-0.5,0.5C42.4,39.5,42.2,39.5,42.1,39.5z M44.4,39.1c-0.2,0-0.4-0.1-0.5-0.3c-0.1-0.3,0.1-0.5,0.3-0.6
	c0.3-0.1,0.6-0.2,0.8-0.4c0.2-0.1,0.5,0,0.7,0.2c0.1,0.2,0,0.5-0.2,0.7c-0.3,0.2-0.6,0.3-1,0.4C44.5,39.1,44.5,39.1,44.4,39.1z
	 M39.5,39.1L39.5,39.1c-0.4-0.1-0.8-0.2-1.1-0.4c-0.3-0.1-0.4-0.4-0.3-0.7s0.4-0.4,0.7-0.3c0.3,0.1,0.6,0.2,0.9,0.3s0.4,0.4,0.3,0.6
	C39.9,38.9,39.7,39.1,39.5,39.1z M23.6,38.7L23.6,38.7c-0.4-0.1-0.5-0.3-0.5-0.6c0.1-0.2,0.1-0.4,0.2-0.7s0.4-0.4,0.6-0.3
	c0.3,0.1,0.4,0.4,0.3,0.6c-0.1,0.2-0.1,0.4-0.2,0.6C24,38.5,23.8,38.7,23.6,38.7z M36.7,37.9c-0.1,0-0.1,0-0.2,0h-0.1l-0.8-0.4
	c-0.2-0.1-0.4-0.4-0.2-0.7c0.1-0.3,0.4-0.4,0.7-0.2l0.8,0.4c0.2,0.1,0.4,0.4,0.3,0.7C37.1,37.8,36.9,37.9,36.7,37.9z M46.8,37.4
	c-0.1,0-0.2,0-0.3-0.1c-0.2-0.2-0.3-0.5-0.1-0.7c0.2-0.2,0.3-0.5,0.4-0.8s0.4-0.4,0.7-0.3c0.3,0.1,0.4,0.4,0.3,0.7s-0.3,0.7-0.5,1
	C47.1,37.4,47,37.4,46.8,37.4z M34,36.6c-0.1,0-0.1,0-0.2,0c-0.3-0.1-0.6-0.3-0.9-0.4c-0.3-0.1-0.4-0.4-0.3-0.7s0.4-0.4,0.7-0.3
	c0.3,0.1,0.6,0.3,0.9,0.4c0.3,0.1,0.4,0.4,0.3,0.7C34.4,36.5,34.2,36.6,34,36.6z M24.7,36.3c-0.1,0-0.2,0-0.3-0.1
	c-0.2-0.2-0.2-0.5-0.1-0.7c0.2-0.3,0.5-0.5,0.8-0.8c0.2-0.2,0.5-0.1,0.7,0.1c0.2,0.2,0.1,0.5-0.1,0.7s-0.4,0.4-0.6,0.6
	C25,36.2,24.8,36.3,24.7,36.3z M31.2,35.5c0,0-0.1,0-0.2,0c-0.3-0.1-0.6-0.2-0.9-0.3s-0.4-0.3-0.4-0.6c0.1-0.3,0.3-0.4,0.6-0.4
	c0.3,0.1,0.7,0.2,1,0.3s0.4,0.4,0.3,0.6C31.6,35.4,31.4,35.5,31.2,35.5z M27.3,35c-0.3,0-0.5-0.2-0.5-0.4c0-0.3,0.2-0.5,0.4-0.6
	c0.3,0,0.7,0,1.1,0c0.3,0,0.5,0.2,0.5,0.5S28.5,35,28.3,35C28,34.9,27.6,34.9,27.3,35L27.3,35z M47.7,34.6c-0.3,0-0.5-0.2-0.5-0.5
	s0-0.6-0.1-0.9c0-0.3,0.2-0.5,0.4-0.6c0.3,0,0.5,0.2,0.6,0.4c0,0.3,0.1,0.7,0.1,1S48,34.6,47.7,34.6z M47.1,31.7
	c-0.2,0-0.4-0.1-0.5-0.3c-0.1-0.3-0.3-0.6-0.4-0.8c-0.2-0.2-0.1-0.5,0.1-0.7c0.2-0.1,0.5-0.1,0.7,0.1c0.2,0.3,0.4,0.6,0.5,1
	C47.6,31.3,47.5,31.5,47.1,31.7C47.3,31.7,47.2,31.7,47.1,31.7z M45.3,29.4c-0.1,0-0.2,0-0.3-0.1c-0.2-0.2-0.5-0.3-0.8-0.5
	c-0.2-0.1-0.3-0.4-0.2-0.7c0.1-0.2,0.4-0.3,0.7-0.2c0.3,0.2,0.6,0.4,0.9,0.6c0.2,0.2,0.3,0.5,0.1,0.7C45.6,29.3,45.5,29.4,45.3,29.4
	z M29.7,28.4c-0.2,0-0.5-0.2-0.5-0.4c0-0.3,0.2-0.5,0.4-0.6l0.9-0.1l0.1,0.5l0.1,0.5L29.7,28.4L29.7,28.4z M27.7,28.4L27.7,28.4
	c-0.5-0.1-0.8-0.2-1.2-0.4c-0.2-0.1-0.4-0.4-0.2-0.7c0.1-0.2,0.4-0.4,0.7-0.2c0.3,0.1,0.5,0.2,0.8,0.3s0.4,0.3,0.4,0.6
	C28.1,28.2,27.9,28.4,27.7,28.4z M42.6,28.1L42.6,28.1c-0.4-0.1-0.7-0.1-1-0.2c-0.3,0-0.5-0.3-0.4-0.6c0-0.3,0.3-0.5,0.6-0.4
	c0.3,0.1,0.7,0.1,1,0.2c0.3,0.1,0.4,0.3,0.4,0.6C43,28,42.8,28.1,42.6,28.1z M32.6,28c-0.2,0-0.5-0.2-0.5-0.4c0-0.3,0.2-0.5,0.4-0.6
	c0.3,0,0.7-0.1,1-0.1s0.5,0.2,0.6,0.4c0,0.3-0.2,0.5-0.4,0.6C33.4,27.9,33,28,32.6,28C32.7,28,32.7,28,32.6,28z M35.6,27.7
	c-0.3,0-0.5-0.2-0.5-0.5s0.2-0.5,0.5-0.5s0.7,0,1-0.1c0.3,0,0.5,0.2,0.5,0.5s-0.2,0.5-0.5,0.5C36.3,27.7,36,27.7,35.6,27.7
	L35.6,27.7z M39.6,27.7L39.6,27.7c-0.4,0-0.7,0-1,0s-0.5-0.2-0.5-0.5s0.2-0.5,0.5-0.5s0.7,0,1,0s0.5,0.3,0.5,0.5
	C40.1,27.5,39.9,27.7,39.6,27.7z M25.2,26.8c-0.1,0-0.3-0.1-0.4-0.2c-0.2-0.3-0.4-0.6-0.6-0.9c-0.1-0.2-0.1-0.5,0.2-0.7
	c0.2-0.1,0.5-0.1,0.7,0.2s0.3,0.5,0.5,0.7s0.2,0.5-0.1,0.7C25.4,26.8,25.3,26.8,25.2,26.8z M23.8,24.2c-0.2,0-0.4-0.1-0.5-0.4
	c-0.2-0.6-0.2-1-0.2-1.1c0-0.3,0.2-0.5,0.4-0.6c0.3,0,0.5,0.2,0.6,0.4c0,0,0.1,0.4,0.2,0.9c0.1,0.3-0.1,0.5-0.3,0.6
	C23.9,24.2,23.9,24.2,23.8,24.2z"/>
<path class="st1" d="M24.7,49.7c-0.3,0-0.5-0.2-0.5-0.5v-2.4c0-0.1,0-0.2,0-0.4c0-0.3,0.3-0.5,0.5-0.5c0.3,0,0.5,0.3,0.5,0.5
	c0,0.1,0,0.2,0,0.3v2.4C25.2,49.4,25,49.7,24.7,49.7z"/>
<path class="st1" d="M14,49.7c-0.3,0-0.5-0.2-0.5-0.5v-9.5c0-0.8,0.3-1.6,0.7-2.3l5-6.7c0.1-0.1,0.2-0.2,0.4-0.2
	c0.1,0,0.3,0.1,0.4,0.2l0.4,0.4c0.2,0.2,0.2,0.5-0.1,0.7c-0.2,0.2-0.5,0.2-0.7,0L14.9,38c-0.4,0.5-0.5,1.1-0.5,1.7v9.5
	C14.5,49.4,14.3,49.7,14,49.7z"/>
<path class="st1" d="M25.5,53.7H12.8c-0.3,0-0.5-0.2-0.5-0.5v-4c0-0.3,0.2-0.5,0.5-0.5h12.7c0.3,0,0.5,0.2,0.5,0.5v4
	C26,53.5,25.8,53.7,25.5,53.7z M13.2,52.7h11.7v-3H13.2V52.7z"/>
<path class="st1" d="M20.8,46.8c-0.1,0-0.2,0-0.3-0.1c-0.2-0.2-0.2-0.5-0.1-0.7l0.4-0.4c0.6-0.7,0.5-1.8-0.2-2.3
	c-0.2-0.2-0.2-0.5-0.1-0.7l1.9-2.3c1.1-1.3,0.9-3.2-0.5-4.3h-0.1l-4.5,5.5c-0.2,0.2-0.5,0.2-0.7,0.1c-0.2-0.2-0.2-0.5-0.1-0.7
	l4.5-5.5c0.4-0.5,1.1-0.5,1.6-0.2c1.7,1.4,2,4,0.6,5.7l-1.6,2c0.8,1,0.8,2.4,0,3.4l-0.4,0.4C21.1,46.8,20.9,46.8,20.8,46.8z"/>
<path class="st1" d="M46.7,49.7c-0.3,0-0.5-0.2-0.5-0.5v-2.7c0-0.3,0.2-0.5,0.5-0.5s0.5,0.2,0.5,0.5v0.3v2.4
	C47.2,49.4,47,49.7,46.7,49.7z"/>
<path class="st1" d="M57.5,49.7c-0.3,0-0.5-0.2-0.5-0.5v-9.5c0-0.6-0.2-1.2-0.6-1.7l-4.7-6.2c-0.2,0.2-0.5,0.2-0.7,0
	s-0.2-0.5-0.1-0.7l0.4-0.4c0.1-0.1,0.3-0.2,0.4-0.2c0.2,0,0.3,0.1,0.4,0.2l5,6.7c0.5,0.6,0.8,1.4,0.8,2.3v9.5
	C58,49.4,57.7,49.7,57.5,49.7z"/>
<path class="st1" d="M58.7,53.7H46c-0.3,0-0.5-0.2-0.5-0.5v-4c0-0.3,0.2-0.5,0.5-0.5h12.7c0.3,0,0.5,0.2,0.5,0.5v4
	C59.2,53.5,59,53.7,58.7,53.7z M46.5,52.7h11.7v-3H46.5V52.7z"/>
<path class="st1" d="M50.6,46.8c-0.1,0-0.3-0.1-0.4-0.2l-0.4-0.4c-0.4-0.6-0.7-1.2-0.6-2c0.1-0.5,0.3-1,0.6-1.4l-1.6-2
	c-1.4-1.7-1.1-4.3,0.6-5.7c0.2-0.2,0.5-0.3,0.8-0.2c0.3,0,0.6,0.2,0.8,0.4l4.5,5.5c0.2,0.2,0.1,0.5-0.1,0.7s-0.5,0.1-0.7-0.1
	l-4.5-5.5h-0.2c-1.3,1.1-1.5,3-0.4,4.3l1.9,2.3c0.1,0.1,0.1,0.2,0.1,0.4s-0.1,0.3-0.2,0.3c-0.3,0.3-0.6,0.7-0.6,1.1
	c0,0.4,0.1,0.9,0.4,1.2l0.4,0.4c0.2,0.2,0.1,0.5-0.1,0.7C50.9,46.8,50.8,46.8,50.6,46.8z"/>
</svg>
