<?xml version="1.0" encoding="utf-8"?>
<!-- Generator: Adobe Illustrator 22.1.0, SVG Export Plug-In . SVG Version: 6.00 Build 0)  -->
<svg version="1.1" id="Calque_1" xmlns="http://www.w3.org/2000/svg" xmlns:xlink="http://www.w3.org/1999/xlink" x="0px" y="0px"
	 viewBox="0 0 71.3 71.3" style="enable-background:new 0 0 71.3 71.3;" xml:space="preserve">
<style type="text/css">
	.st0{fill:#FDA601;}
	.st1{fill:#573A2D;}
</style>
<path class="st0" d="M33.7,71.3L33.7,71.3L33.7,71.3c-0.5,0-1-0.5-0.9-1l0,0c0-0.6,0.5-1,1-1l0,0c0.5,0,1,0.5,0.9,1.1l0,0
	C34.7,70.9,34.3,71.3,33.7,71.3L33.7,71.3L33.7,71.3z M36.8,70.4c0-0.6,0.4-1,0.9-1.1l0,0c0.5,0,1,0.4,1.1,0.9l0,0
	c0,0.6-0.4,1-0.9,1.1l0,0c0,0,0,0-0.1,0l0,0C37.2,71.3,36.8,70.9,36.8,70.4z M29.6,70.9L29.6,70.9L29.6,70.9
	c-0.5-0.1-0.9-0.6-0.8-1.1l0,0c0.1-0.5,0.6-0.9,1.1-0.8l0,0c0.6,0.1,0.9,0.6,0.8,1.2l0,0c-0.1,0.5-0.5,0.8-1,0.8l0,0
	C29.7,70.9,29.6,70.9,29.6,70.9z M40.8,70c-0.1-0.6,0.3-1.1,0.8-1.2l0,0c0.5-0.1,1.1,0.3,1.2,0.8l0,0c0.1,0.5-0.3,1.1-0.8,1.2l0,0
	c-0.1,0-0.1,0-0.2,0l0,0C41.3,70.8,40.9,70.5,40.8,70z M25.5,69.9c-0.5-0.1-0.8-0.7-0.7-1.2l0,0c0.2-0.5,0.7-0.8,1.2-0.7l0,0
	c0.5,0.1,0.8,0.7,0.7,1.2l0,0c-0.1,0.4-0.5,0.7-1,0.7l0,0C25.7,70,25.6,69.9,25.5,69.9z M44.7,69.2c-0.2-0.5,0.1-1.1,0.7-1.2l0,0
	c0.5-0.2,1.1,0.1,1.2,0.7l0,0c0.2,0.5-0.1,1.1-0.7,1.2l0,0c-0.1,0-0.2,0-0.3,0l0,0C45.3,69.9,44.9,69.6,44.7,69.2z M21.6,68.5
	c-0.5-0.2-0.7-0.8-0.5-1.3l0,0c0.2-0.5,0.8-0.8,1.3-0.5l0,0c0.5,0.2,0.7,0.8,0.5,1.3l0,0c-0.2,0.4-0.5,0.6-0.9,0.6l0,0
	C21.9,68.6,21.7,68.6,21.6,68.5z M48.5,67.9c-0.2-0.5,0-1.1,0.5-1.3l0,0c0.5-0.2,1.1,0,1.3,0.5l0,0c0.2,0.5,0,1.1-0.5,1.3l0,0
	c-0.1,0.1-0.3,0.1-0.4,0.1l0,0C49.1,68.5,48.7,68.3,48.5,67.9z M17.9,66.7c-0.5-0.3-0.7-0.9-0.4-1.4l0,0c0.3-0.5,0.9-0.6,1.4-0.4
	l0,0c0.5,0.3,0.7,0.9,0.4,1.4l0,0c-0.2,0.3-0.5,0.5-0.9,0.5l0,0C18.2,66.8,18,66.7,17.9,66.7z M52.2,66.2c-0.3-0.5-0.1-1.1,0.4-1.4
	l0,0c0.5-0.3,1.1-0.1,1.4,0.4l0,0c0.3,0.5,0.1,1.1-0.4,1.4l0,0c-0.2,0.1-0.3,0.1-0.5,0.1l0,0C52.7,66.7,52.4,66.5,52.2,66.2z
	 M14.4,64.4c-0.4-0.3-0.5-0.9-0.2-1.4l0,0c0.3-0.4,1-0.5,1.4-0.2l0,0c0.4,0.3,0.5,1,0.2,1.4l0,0c-0.2,0.3-0.5,0.4-0.8,0.4l0,0
	C14.8,64.6,14.6,64.5,14.4,64.4z M55.6,64.1c-0.3-0.4-0.2-1.1,0.2-1.4l0,0c0.4-0.3,1.1-0.2,1.4,0.2l0,0c0.3,0.4,0.2,1.1-0.2,1.4l0,0
	l0,0l0,0c-0.2,0.1-0.4,0.2-0.6,0.2l0,0C56.1,64.5,55.8,64.3,55.6,64.1z M11.2,61.7L11.2,61.7L11.2,61.7c-0.4-0.4-0.4-1,0-1.4l0,0
	c0.4-0.4,1-0.4,1.4,0l0,0c0.4,0.4,0.4,1,0,1.4l0,0c-0.2,0.2-0.5,0.3-0.7,0.3l0,0C11.7,62,11.4,61.9,11.2,61.7z M58.8,61.6
	c-0.4-0.4-0.4-1,0-1.4l0,0c0.4-0.4,1-0.4,1.4,0l0,0c0.4,0.4,0.4,1,0,1.4l0,0c-0.2,0.2-0.4,0.3-0.7,0.3l0,0
	C59.2,61.9,59,61.8,58.8,61.6z M8.4,58.7L8.4,58.7L8.4,58.7c-0.4-0.4-0.3-1.1,0.1-1.4l0,0c0.4-0.4,1-0.3,1.4,0.1l0,0
	c0.4,0.4,0.3,1-0.1,1.4l0,0C9.6,59,9.4,59,9.2,59l0,0C8.9,59.1,8.6,59,8.4,58.7z M61.6,58.7c-0.4-0.4-0.5-1-0.1-1.4l0,0
	c0.3-0.4,1-0.5,1.4-0.1l0,0c0.4,0.4,0.5,1,0.1,1.4l0,0l0,0l0,0c-0.2,0.2-0.5,0.4-0.8,0.4l0,0C62,58.9,61.8,58.8,61.6,58.7z
	 M5.9,55.4c-0.3-0.5-0.2-1.1,0.3-1.4l0,0c0.5-0.3,1.1-0.2,1.4,0.3l0,0c0.3,0.5,0.2,1.1-0.3,1.4l0,0c-0.2,0.1-0.4,0.2-0.5,0.2l0,0
	C6.4,55.9,6.1,55.7,5.9,55.4z M64.1,55.5c-0.5-0.3-0.6-0.9-0.3-1.4l0,0c0.3-0.5,0.9-0.6,1.4-0.3l0,0c0.5,0.3,0.6,0.9,0.3,1.4l0,0
	c-0.2,0.3-0.5,0.5-0.8,0.5l0,0C64.5,55.7,64.3,55.6,64.1,55.5z M3.8,51.8L3.8,51.8L3.8,51.8c-0.2-0.5,0-1.1,0.4-1.3l0,0
	c0.5-0.2,1.1-0.1,1.3,0.4l0,0c0.2,0.5,0,1.1-0.4,1.3l0,0c-0.2,0.1-0.3,0.1-0.5,0.1l0,0C4.3,52.4,4,52.2,3.8,51.8z M66.2,52.1
	c-0.5-0.2-0.7-0.9-0.4-1.3l0,0c0.2-0.5,0.8-0.7,1.3-0.5l0,0c0.5,0.2,0.7,0.9,0.4,1.3l0,0l0,0l0,0c-0.2,0.4-0.5,0.6-0.9,0.6l0,0
	C66.5,52.2,66.4,52.2,66.2,52.1z M2.1,48c-0.2-0.5,0.1-1.1,0.6-1.3l0,0c0.5-0.2,1.1,0.1,1.3,0.6l0,0c0.2,0.5-0.1,1.1-0.6,1.3l0,0
	c-0.1,0.1-0.2,0.1-0.3,0.1l0,0C2.7,48.7,2.3,48.4,2.1,48z M67.9,48.4c-0.5-0.2-0.8-0.8-0.6-1.3l0,0c0.2-0.5,0.8-0.8,1.3-0.6l0,0
	c0.5,0.2,0.8,0.8,0.6,1.3l0,0c-0.2,0.4-0.5,0.7-0.9,0.7l0,0C68.2,48.5,68,48.5,67.9,48.4z M0.9,44.1c-0.1-0.5,0.2-1.1,0.7-1.2l0,0
	c0.5-0.1,1.1,0.2,1.2,0.7l0,0c0.1,0.5-0.2,1.1-0.7,1.2l0,0c-0.1,0-0.2,0-0.2,0l0,0C1.5,44.8,1,44.5,0.9,44.1z M69.2,44.6
	c-0.5-0.1-0.9-0.7-0.8-1.2l0,0c0.1-0.5,0.7-0.9,1.2-0.8l0,0c0.5,0.1,0.9,0.7,0.7,1.2l0,0c-0.1,0.5-0.5,0.8-1,0.8l0,0
	C69.3,44.6,69.3,44.6,69.2,44.6z M0.2,40c-0.1-0.6,0.3-1.1,0.9-1.1l0,0c0.5-0.1,1,0.3,1.1,0.9l0,0c0.1,0.6-0.3,1.1-0.9,1.1l0,0H1.2
	l0,0C0.7,40.9,0.3,40.5,0.2,40z M70,40.6c-0.5-0.1-0.9-0.5-0.9-1.1l0,0c0.1-0.6,0.6-1,1.1-0.9l0,0c0.5,0.1,0.9,0.6,0.9,1.1l0,0l0,0
	l0,0C71,40.2,70.6,40.6,70,40.6L70,40.6C70.1,40.6,70,40.6,70,40.6z M0,35.8L0,35.8L0,35.8c0-0.1,0-0.1,0-0.1l0,0c0-0.6,0.4-1,1-1
	l0,0c0.5,0,1,0.4,1,1l0,0c0,0,0,0,0,0.1l0,0c0,0,0,0,0,0.1l0,0c0,0.6-0.5,1-1,1l0,0C0.4,36.8,0,36.4,0,35.8z M69.3,35.6
	c0-0.6,0.4-1,1-1l0,0c0.6,0,1,0.5,1,1l0,0c0,0.6-0.5,1-1,1l0,0C69.8,36.6,69.3,36.2,69.3,35.6z M1.1,32.7c-0.6-0.1-0.9-0.6-0.9-1.1
	l0,0c0.1-0.5,0.6-0.9,1.1-0.9l0,0c0.5,0.1,0.9,0.6,0.9,1.1l0,0C2.1,32.3,1.7,32.7,1.1,32.7L1.1,32.7L1.1,32.7z M69.1,31.7
	c-0.1-0.5,0.3-1,0.9-1.1l0,0c0.5-0.1,1,0.3,1.1,0.9l0,0c0.1,0.5-0.3,1-0.9,1.1l0,0h-0.1l0,0C69.6,32.6,69.2,32.2,69.1,31.7z
	 M1.7,28.7C1.2,28.6,0.8,28,1,27.5l0,0c0.1-0.5,0.7-0.9,1.2-0.7l0,0c0.5,0.1,0.9,0.7,0.7,1.2l0,0c-0.1,0.5-0.5,0.8-1,0.8l0,0
	C1.8,28.7,1.7,28.7,1.7,28.7z M68.4,27.9c-0.1-0.5,0.2-1.1,0.7-1.2l0,0c0.5-0.1,1.1,0.2,1.2,0.7l0,0c0.1,0.5-0.2,1.1-0.7,1.2l0,0
	c-0.1,0-0.2,0-0.2,0l0,0C68.9,28.6,68.5,28.3,68.4,27.9z M2.7,24.8c-0.5-0.2-0.8-0.8-0.6-1.3l0,0c0.2-0.5,0.8-0.8,1.3-0.6l0,0
	c0.5,0.2,0.8,0.8,0.6,1.3l0,0c-0.2,0.4-0.5,0.6-0.9,0.6l0,0C2.9,24.8,2.8,24.8,2.7,24.8z M67.3,24.1c-0.2-0.5,0.1-1.1,0.6-1.3l0,0
	c0.5-0.2,1.1,0.1,1.3,0.6l0,0c0.2,0.5-0.1,1.1-0.6,1.3l0,0c-0.1,0-0.2,0.1-0.3,0.1l0,0C67.8,24.8,67.4,24.5,67.3,24.1z M4.2,21
	c-0.5-0.2-0.7-0.9-0.4-1.4l0,0c0.2-0.5,0.8-0.7,1.3-0.4l0,0c0.5,0.2,0.7,0.9,0.5,1.3l0,0c-0.2,0.4-0.5,0.6-0.9,0.6l0,0
	C4.5,21.1,4.3,21.1,4.2,21z M65.7,20.5L65.7,20.5c-0.2-0.5-0.1-1.1,0.4-1.3l0,0c0.5-0.2,1.1,0,1.3,0.4l0,0c0.2,0.5,0,1.1-0.4,1.4
	l0,0c-0.1,0.1-0.3,0.1-0.5,0.1l0,0C66.3,21.1,65.9,20.9,65.7,20.5z M6.1,17.5c-0.5-0.3-0.6-0.9-0.3-1.4l0,0c0.3-0.5,0.9-0.6,1.4-0.3
	l0,0c0.5,0.3,0.6,0.9,0.3,1.4l0,0c-0.2,0.3-0.5,0.4-0.8,0.4l0,0C6.5,17.6,6.3,17.6,6.1,17.5z M63.8,17.1c-0.3-0.5-0.2-1.1,0.3-1.4
	l0,0c0.5-0.3,1.1-0.2,1.4,0.3l0,0c0.3,0.5,0.2,1.1-0.3,1.4l0,0c-0.2,0.1-0.4,0.2-0.6,0.2l0,0C64.3,17.6,64,17.4,63.8,17.1z
	 M8.4,14.2c-0.4-0.4-0.5-1-0.1-1.4l0,0l0,0l0,0c0.4-0.4,1-0.5,1.4-0.1l0,0c0.4,0.4,0.5,1,0.1,1.4l0,0c-0.2,0.2-0.5,0.4-0.8,0.4l0,0
	C8.8,14.4,8.6,14.3,8.4,14.2z M61.4,14L61.4,14c-0.4-0.4-0.3-1.1,0.1-1.4l0,0c0.4-0.4,1-0.3,1.4,0.1l0,0c0.3,0.4,0.3,1.1-0.1,1.4
	l0,0c-0.2,0.1-0.4,0.2-0.7,0.2l0,0C61.9,14.4,61.6,14.2,61.4,14z M11.1,11.2c-0.4-0.4-0.4-1,0-1.4l0,0c0.4-0.4,1-0.4,1.4,0l0,0
	c0.4,0.4,0.4,1,0,1.4l0,0c-0.2,0.2-0.4,0.3-0.7,0.3l0,0C11.6,11.5,11.3,11.4,11.1,11.2z M58.7,11.2c-0.4-0.4-0.4-1,0-1.4l0,0
	c0.4-0.4,1-0.4,1.4-0.1l0,0c0.4,0.4,0.4,1,0,1.4l0,0c-0.2,0.2-0.5,0.3-0.7,0.3l0,0C59.2,11.4,58.9,11.3,58.7,11.2z M14.1,8.5
	c-0.3-0.4-0.2-1.1,0.2-1.4l0,0l0,0l0,0c0.4-0.3,1.1-0.2,1.4,0.2l0,0c0.3,0.5,0.2,1.1-0.2,1.4l0,0c-0.2,0.1-0.4,0.2-0.6,0.2l0,0
	C14.6,8.9,14.3,8.7,14.1,8.5z M55.7,8.6c-0.4-0.3-0.5-1-0.2-1.4l0,0c0.3-0.5,1-0.5,1.4-0.2l0,0l0,0l0,0c0.4,0.3,0.5,1,0.2,1.4l0,0
	c-0.2,0.3-0.5,0.4-0.8,0.4l0,0C56.1,8.8,55.9,8.8,55.7,8.6z M17.4,6.2c-0.3-0.5-0.1-1.1,0.4-1.4l0,0c0.5-0.3,1.1-0.1,1.4,0.4l0,0
	c0.3,0.5,0.1,1.1-0.4,1.4l0,0c-0.2,0.1-0.3,0.1-0.5,0.1l0,0C17.9,6.7,17.6,6.5,17.4,6.2z M52.4,6.5c-0.5-0.3-0.6-0.9-0.4-1.4l0,0
	c0.3-0.5,0.9-0.6,1.4-0.4l0,0C53.9,5,54,5.6,53.8,6.1l0,0c-0.2,0.3-0.5,0.5-0.9,0.5l0,0C52.8,6.6,52.6,6.6,52.4,6.5z M21,4.3
	c-0.2-0.5,0-1.1,0.5-1.3l0,0c0.5-0.2,1.1,0,1.3,0.5l0,0c0.2,0.5,0,1.1-0.5,1.3l0,0c-0.1,0-0.3,0.1-0.4,0.1l0,0
	C21.5,4.8,21.1,4.6,21,4.3z M49,4.7L49,4.7c-0.5-0.2-0.7-0.8-0.5-1.3l0,0c0.2-0.5,0.8-0.8,1.3-0.5l0,0c0.5,0.2,0.7,0.8,0.5,1.3l0,0
	c-0.2,0.4-0.5,0.6-0.9,0.6l0,0C49.2,4.8,49.1,4.8,49,4.7z M24.7,2.7c-0.2-0.5,0.1-1.1,0.7-1.2l0,0c0.5-0.2,1.1,0.1,1.2,0.7l0,0
	c0.2,0.5-0.1,1.1-0.7,1.2l0,0c-0.1,0-0.2,0-0.3,0l0,0C25.2,3.5,24.8,3.2,24.7,2.7z M45.3,3.4c-0.5-0.1-0.8-0.7-0.7-1.2l0,0
	c0.2-0.5,0.7-0.8,1.2-0.7l0,0c0.5,0.2,0.8,0.7,0.7,1.2l0,0c-0.1,0.4-0.5,0.7-1,0.7l0,0C45.5,3.4,45.4,3.4,45.3,3.4z M28.6,1.7
	c-0.1-0.6,0.3-1.1,0.8-1.2l0,0l0,0l0,0c0.5-0.1,1.1,0.3,1.2,0.8l0,0c0.1,0.5-0.3,1.1-0.8,1.2l0,0c-0.1,0-0.1,0-0.2,0l0,0
	C29.1,2.5,28.7,2.2,28.6,1.7z M41.5,2.5L41.5,2.5c-0.5-0.1-0.9-0.6-0.8-1.2l0,0c0.1-0.5,0.6-0.9,1.2-0.8l0,0
	c0.5,0.1,0.9,0.6,0.8,1.2l0,0c-0.1,0.5-0.5,0.8-1,0.8l0,0C41.6,2.5,41.5,2.5,41.5,2.5z M32.6,1.1c0-0.6,0.4-1,0.9-1.1l0,0l0,0l0,0
	c0.5,0,1,0.4,1.1,0.9l0,0c0,0.6-0.4,1-0.9,1.1l0,0c0,0,0,0-0.1,0l0,0C33.1,2.1,32.6,1.7,32.6,1.1z M37.6,2.1L37.6,2.1
	c-0.6,0-1-0.5-0.9-1.1l0,0c0-0.5,0.5-1,1-0.9l0,0l0,0l0,0c0.6,0,1,0.5,0.9,1.1l0,0C38.6,1.6,38.2,2.1,37.6,2.1L37.6,2.1L37.6,2.1z"
	/>
<path class="st1" d="M41.9,57.3H22.8c-2,0-3.6-1.6-3.6-3.6V36c0-3.6,4-5.7,4.2-5.8c0,0,8.5-3.9,12.2-5.6c3.3-1.5,3.5-4.2,3.5-5
	c0-3.3-2.4-5.6-5.9-5.6c-3.4,0-6.2,2.8-6.2,6.2v0.1c-0.1,1.6-1.4,2.8-3,2.8c-1.7,0-3-1.4-3-3c0-6.8,5.5-12.3,12.3-12.3
	s12.3,5.5,12.3,12.3v33.6C45.5,55.7,43.9,57.3,41.9,57.3z M33.2,13c4,0,6.9,2.8,6.9,6.6c0,0.9-0.3,4.1-4.1,5.9
	c-3.7,1.7-12.2,5.6-12.2,5.6s-3.6,1.8-3.6,4.9v17.7c0,1.5,1.2,2.6,2.6,2.6h19.1c1.5,0,2.6-1.2,2.6-2.6V20.1
	c0-6.3-5.1-11.3-11.3-11.3c-6.3,0-11.3,5.1-11.3,11.3c0,1.1,0.9,2,2,2s2-0.9,2-2c0,0,0,0,0-0.1C26.1,16.1,29.3,13,33.2,13z"/>
<path class="st1" d="M41.3,51h-18c-0.3,0-0.5-0.2-0.5-0.5V36.9c0-0.3,0.2-0.5,0.5-0.5h18c0.3,0,0.5,0.2,0.5,0.5v13.6
	C41.8,50.8,41.6,51,41.3,51z M23.8,50h17V37.4h-17V50z"/>
<path class="st1" d="M36.6,61.2c-0.5,0-1-0.1-1.5-0.3c-0.9-0.4-1.6-1.1-1.9-2l-0.7-1.8c-0.1-0.3,0-0.5,0.3-0.6s0.5,0,0.6,0.3
	l0.7,1.9c0.3,0.7,0.7,1.2,1.4,1.5s1.4,0.3,2,0l17.8-6.9c0.7-0.3,1.2-0.8,1.5-1.4c0.3-0.6,0.3-1.4,0-2L44.7,18.6
	c-0.2-0.5-0.4-1-0.7-1.4c-0.1-0.2,0-0.5,0.2-0.7c0.2-0.1,0.5,0,0.7,0.2c0.3,0.5,0.5,1,0.7,1.5l12.1,31.3c0.4,0.9,0.3,1.9-0.1,2.8
	c-0.4,0.9-1.1,1.6-2,1.9l-17.8,6.9C37.5,61.1,37,61.2,36.6,61.2z"/>
<path class="st1" d="M39.5,19.3c-0.3,0-0.5-0.2-0.5-0.5l0,0c0-0.3,0.2-0.5,0.5-0.5s0.5,0.2,0.5,0.5S39.8,19.3,39.5,19.3z"/>
<path class="st1" d="M45,51.4c-0.2,0-0.4-0.1-0.5-0.3c-0.1-0.3,0-0.5,0.3-0.6l7.3-2.8l-4.6-11.8l-2.3,0.9c-0.3,0.1-0.5,0-0.6-0.3
	s0-0.5,0.3-0.6l2.8-1.1c0.3-0.1,0.5,0,0.6,0.3l4.9,12.7c0.1,0.3,0,0.5-0.3,0.6l-7.7,3C45.2,51.4,45.1,51.4,45,51.4z"/>
</svg>
