<?xml version="1.0" encoding="utf-8"?>
<!-- Generator: Adobe Illustrator 22.1.0, SVG Export Plug-In . SVG Version: 6.00 Build 0)  -->
<svg version="1.1" id="Calque_1" xmlns="http://www.w3.org/2000/svg" xmlns:xlink="http://www.w3.org/1999/xlink" x="0px" y="0px"
	 viewBox="0 0 71.3 71.3" style="enable-background:new 0 0 71.3 71.3;" xml:space="preserve">
<style type="text/css">
	.st0{fill:#FDA601;}
	.st1{fill:#573A2D;}
</style>
<path class="st0" d="M33.7,71.3L33.7,71.3L33.7,71.3c-0.6,0-1-0.5-0.9-1.1l0,0c0-0.5,0.5-1,1-0.9l0,0c0.5,0,1,0.5,0.9,1.1l0,0
	C34.7,70.9,34.3,71.3,33.7,71.3L33.7,71.3L33.7,71.3z M36.8,70.4c0-0.6,0.4-1,0.9-1.1l0,0c0.6,0,1,0.4,1.1,0.9l0,0
	c0,0.5-0.4,1-0.9,1l0,0l0,0l0,0c0,0,0,0-0.1,0l0,0C37.3,71.3,36.8,70.9,36.8,70.4z M29.6,70.8c-0.5-0.1-0.9-0.6-0.8-1.2l0,0
	c0.1-0.5,0.6-0.9,1.2-0.8l0,0c0.5,0.1,0.9,0.6,0.8,1.2l0,0c-0.1,0.5-0.5,0.8-1,0.8l0,0C29.7,70.8,29.6,70.8,29.6,70.8z M40.8,70
	c-0.1-0.5,0.3-1.1,0.8-1.2l0,0c0.6-0.1,1.1,0.3,1.2,0.8l0,0c0.1,0.5-0.3,1.1-0.8,1.2l0,0c0,0-0.1,0-0.2,0l0,0
	C41.3,70.8,40.9,70.5,40.8,70z M25.5,69.9c-0.5-0.2-0.8-0.7-0.7-1.2l0,0c0.2-0.5,0.7-0.8,1.2-0.7l0,0c0.5,0.2,0.8,0.7,0.7,1.2l0,0
	c-0.1,0.4-0.5,0.7-1,0.7l0,0C25.7,69.9,25.6,69.9,25.5,69.9z M44.8,69.2c-0.2-0.5,0.1-1.1,0.7-1.2l0,0c0.5-0.2,1.1,0.1,1.2,0.7l0,0
	c0.2,0.5-0.1,1.1-0.7,1.2l0,0c-0.1,0-0.2,0-0.3,0l0,0C45.3,69.9,44.9,69.6,44.8,69.2z M21.6,68.5c-0.5-0.2-0.7-0.8-0.5-1.3l0,0
	c0.2-0.5,0.8-0.7,1.3-0.5l0,0c0.5,0.2,0.7,0.8,0.5,1.3l0,0c-0.2,0.4-0.5,0.6-0.9,0.6l0,0C21.9,68.6,21.8,68.5,21.6,68.5z M48.6,67.9
	c-0.2-0.5,0-1.1,0.5-1.3l0,0c0.5-0.2,1.1,0,1.3,0.5l0,0c0.2,0.5,0,1.1-0.5,1.3l0,0c-0.1,0.1-0.3,0.1-0.4,0.1l0,0
	C49.1,68.5,48.7,68.3,48.6,67.9z M17.9,66.6c-0.5-0.3-0.6-0.9-0.4-1.4l0,0c0.3-0.5,0.9-0.6,1.4-0.4l0,0c0.5,0.3,0.6,0.9,0.4,1.4l0,0
	c-0.2,0.3-0.5,0.5-0.9,0.5l0,0C18.2,66.8,18.1,66.7,17.9,66.6z M52.2,66.2c-0.3-0.5-0.1-1.1,0.4-1.4l0,0c0.5-0.3,1.1-0.1,1.4,0.4
	l0,0c0.3,0.5,0.1,1.1-0.4,1.4l0,0c-0.2,0.1-0.3,0.1-0.5,0.1l0,0C52.7,66.7,52.4,66.5,52.2,66.2z M14.5,64.4c-0.5-0.3-0.5-1-0.2-1.4
	l0,0c0.3-0.4,1-0.5,1.4-0.2l0,0c0.4,0.3,0.5,1,0.2,1.4l0,0c-0.2,0.3-0.5,0.4-0.8,0.4l0,0C14.8,64.6,14.6,64.5,14.5,64.4z M55.6,64
	c-0.3-0.4-0.2-1.1,0.2-1.4l0,0c0.4-0.3,1.1-0.2,1.4,0.2l0,0c0.3,0.4,0.2,1.1-0.2,1.4l0,0l0,0l0,0c-0.2,0.1-0.4,0.2-0.6,0.2l0,0
	C56.1,64.4,55.8,64.3,55.6,64z M11.3,61.7c-0.4-0.4-0.4-1,0-1.4l0,0c0.4-0.4,1-0.4,1.4-0.1l0,0c0.4,0.4,0.4,1,0,1.4l0,0
	c-0.2,0.2-0.5,0.3-0.7,0.3l0,0C11.7,62,11.5,61.9,11.3,61.7z M58.8,61.5c-0.4-0.4-0.4-1,0-1.4l0,0c0.4-0.4,1-0.4,1.4,0l0,0
	c0.4,0.4,0.4,1,0,1.4l0,0c-0.2,0.2-0.5,0.3-0.7,0.3l0,0C59.3,61.8,59,61.7,58.8,61.5z M8.4,58.7c-0.4-0.4-0.3-1.1,0.1-1.4l0,0
	c0.4-0.4,1-0.3,1.4,0.1l0,0c0.4,0.4,0.3,1.1-0.1,1.4l0,0C9.6,59,9.4,59,9.2,59l0,0C8.9,59,8.6,58.9,8.4,58.7z M61.6,58.7
	c-0.4-0.4-0.5-1-0.1-1.4l0,0c0.4-0.4,1-0.5,1.4-0.1l0,0c0.4,0.4,0.5,1,0.1,1.4l0,0l0,0l0,0c-0.2,0.2-0.5,0.4-0.8,0.4l0,0
	C62.1,58.9,61.8,58.8,61.6,58.7z M5.9,55.4c-0.3-0.5-0.2-1.1,0.3-1.4l0,0c0.5-0.3,1.1-0.2,1.4,0.3l0,0c0.3,0.5,0.2,1.1-0.3,1.4l0,0
	c-0.2,0.1-0.4,0.2-0.5,0.2l0,0C6.4,55.8,6.1,55.7,5.9,55.4z M64.1,55.5c-0.5-0.3-0.6-0.9-0.3-1.4l0,0c0.3-0.5,0.9-0.6,1.4-0.3l0,0
	c0.5,0.3,0.6,0.9,0.3,1.4l0,0c-0.2,0.3-0.5,0.5-0.8,0.5l0,0C64.5,55.7,64.3,55.6,64.1,55.5z M3.8,51.8c-0.2-0.5-0.1-1.1,0.4-1.3l0,0
	c0.5-0.2,1.1-0.1,1.3,0.4l0,0c0.2,0.5,0.1,1.1-0.4,1.3l0,0c-0.1,0.1-0.3,0.1-0.5,0.1l0,0C4.4,52.4,4,52.1,3.8,51.8z M66.3,52.1
	c-0.5-0.2-0.7-0.9-0.5-1.3l0,0c0.2-0.5,0.9-0.7,1.3-0.4l0,0c0.5,0.2,0.7,0.9,0.5,1.3l0,0c-0.2,0.4-0.5,0.6-0.9,0.6l0,0
	C66.5,52.2,66.4,52.1,66.3,52.1z M2.2,48c-0.2-0.5,0.1-1.1,0.6-1.3l0,0c0.5-0.2,1.1,0.1,1.3,0.6l0,0c0.2,0.5-0.1,1.1-0.6,1.3l0,0
	c-0.1,0-0.2,0.1-0.3,0.1l0,0C2.7,48.6,2.3,48.4,2.2,48z M68,48.4c-0.5-0.2-0.8-0.8-0.6-1.3l0,0c0.2-0.5,0.8-0.8,1.3-0.6l0,0
	c0.5,0.2,0.8,0.8,0.6,1.3l0,0c-0.1,0.4-0.5,0.7-0.9,0.7l0,0C68.2,48.5,68.1,48.4,68,48.4z M1,44c-0.1-0.5,0.2-1.1,0.7-1.2l0,0
	c0.5-0.1,1.1,0.2,1.2,0.7l0,0C3,44,2.7,44.6,2.2,44.7l0,0c-0.1,0-0.2,0-0.2,0l0,0C1.5,44.8,1.1,44.5,1,44z M69.2,44.6
	c-0.5-0.1-0.9-0.7-0.7-1.2l0,0c0.1-0.5,0.7-0.9,1.2-0.7l0,0c0.5,0.1,0.9,0.7,0.8,1.2l0,0l0,0l0,0c-0.1,0.5-0.5,0.8-1,0.8l0,0
	C69.4,44.6,69.3,44.6,69.2,44.6z M0.2,39.9c-0.1-0.5,0.3-1,0.9-1.1l0,0c0.6-0.1,1,0.3,1.1,0.9l0,0c0.1,0.5-0.3,1-0.9,1.1l0,0H1.2
	l0,0C0.7,40.8,0.3,40.4,0.2,39.9z M70,40.6c-0.5-0.1-1-0.5-0.9-1.1l0,0c0.1-0.5,0.5-0.9,1.1-0.9l0,0c0.5,0.1,0.9,0.6,0.9,1.1l0,0
	l0,0l0,0C71,40.2,70.6,40.6,70,40.6L70,40.6C70.1,40.6,70.1,40.6,70,40.6z M0,35.8L0,35.8L0,35.8c0-0.1,0-0.1,0-0.1l0,0
	c0-0.6,0.5-1,1-1l0,0c0.6,0,1,0.4,1,1l0,0c0,0,0,0,0,0.1l0,0c0,0,0,0,0,0.1l0,0c0,0.6-0.4,1-1,1l0,0C0.4,36.8,0,36.4,0,35.8z
	 M69.3,35.6c0-0.6,0.5-1,1-1l0,0c0.5,0,1,0.5,1,1l0,0c0,0.6-0.4,1-1,1l0,0C69.8,36.6,69.3,36.1,69.3,35.6z M1.1,32.6
	c-0.5-0.1-1-0.6-0.9-1.1l0,0c0.1-0.5,0.6-0.9,1.1-0.9l0,0c0.5,0.1,0.9,0.6,0.9,1.1l0,0C2.1,32.2,1.7,32.6,1.1,32.6L1.1,32.6
	L1.1,32.6z M69.1,31.7c-0.1-0.5,0.3-1,0.9-1.1l0,0c0.5-0.1,1,0.3,1.1,0.9l0,0c0.1,0.6-0.3,1.1-0.9,1.1l0,0h-0.1l0,0
	C69.6,32.6,69.2,32.2,69.1,31.7z M1.7,28.6c-0.5-0.1-0.9-0.7-0.8-1.2l0,0l0,0l0,0c0.1-0.5,0.7-0.9,1.2-0.7l0,0
	c0.5,0.1,0.9,0.7,0.7,1.2l0,0c-0.1,0.5-0.5,0.8-1,0.8l0,0C1.8,28.7,1.8,28.7,1.7,28.6z M68.4,27.8L68.4,27.8
	c-0.1-0.5,0.2-1.1,0.7-1.2l0,0c0.5-0.1,1.1,0.2,1.2,0.7l0,0l0,0l0,0c0.1,0.5-0.2,1.1-0.7,1.2l0,0c-0.1,0-0.1,0-0.2,0l0,0
	C69,28.6,68.5,28.3,68.4,27.8z M2.7,24.7c-0.5-0.2-0.8-0.8-0.6-1.3l0,0c0.2-0.5,0.8-0.8,1.3-0.6l0,0C3.9,23,4.2,23.6,4,24.1l0,0
	c-0.2,0.4-0.5,0.6-0.9,0.6l0,0C3,24.8,2.8,24.8,2.7,24.7z M67.3,24.1c-0.2-0.5,0.1-1.1,0.6-1.3l0,0c0.5-0.2,1.1,0.1,1.3,0.6l0,0
	c0.2,0.5-0.1,1.1-0.6,1.3l0,0c-0.1,0-0.2,0.1-0.3,0.1l0,0C67.8,24.7,67.5,24.5,67.3,24.1z M4.2,21c-0.5-0.2-0.7-0.8-0.4-1.3l0,0
	C4,19.2,4.6,19,5.1,19.3l0,0c0.5,0.2,0.7,0.9,0.4,1.3l0,0C5.3,21,5,21.2,4.6,21.2l0,0C4.5,21.1,4.3,21.1,4.2,21z M65.8,20.5
	c-0.2-0.5,0-1.1,0.4-1.3l0,0c0.5-0.2,1.1,0,1.4,0.4l0,0c0.2,0.5,0,1.1-0.4,1.3l0,0C67.1,21,66.9,21,66.7,21l0,0
	C66.3,21,65.9,20.8,65.8,20.5z M6.1,17.4c-0.5-0.3-0.6-0.9-0.3-1.4l0,0c0.3-0.5,0.9-0.6,1.4-0.3l0,0c0.5,0.3,0.6,0.9,0.3,1.4l0,0
	c-0.2,0.3-0.5,0.4-0.8,0.4l0,0C6.5,17.6,6.3,17.6,6.1,17.4z M63.8,17.1c-0.3-0.5-0.2-1.1,0.3-1.4l0,0c0.5-0.3,1.1-0.2,1.4,0.3l0,0
	c0.3,0.5,0.2,1.1-0.3,1.4l0,0c-0.2,0.1-0.4,0.2-0.5,0.2l0,0C64.3,17.6,64,17.4,63.8,17.1z M8.4,14.1c-0.4-0.4-0.5-1-0.1-1.4l0,0
	c0.4-0.4,1-0.5,1.4-0.1l0,0c0.4,0.4,0.5,1,0.1,1.4l0,0c-0.2,0.2-0.5,0.4-0.8,0.4l0,0C8.9,14.4,8.6,14.3,8.4,14.1z M61.4,14L61.4,14
	c-0.4-0.4-0.3-1,0.1-1.4l0,0c0.4-0.4,1-0.3,1.4,0.1l0,0l0,0l0,0c0.4,0.4,0.3,1.1-0.1,1.4l0,0c-0.2,0.2-0.4,0.2-0.6,0.2l0,0
	C61.9,14.3,61.6,14.2,61.4,14z M11.1,11.1c-0.4-0.4-0.4-1,0-1.4l0,0c0.4-0.4,1-0.4,1.4,0l0,0c0.4,0.4,0.4,1,0,1.4l0,0
	c-0.2,0.2-0.4,0.3-0.7,0.3l0,0C11.6,11.4,11.3,11.3,11.1,11.1z M58.8,11.1c-0.4-0.4-0.4-1,0-1.4l0,0c0.4-0.4,1-0.4,1.4,0l0,0l0,0
	l0,0c0.4,0.4,0.4,1,0,1.4l0,0c-0.2,0.2-0.5,0.3-0.7,0.3l0,0C59.2,11.4,58.9,11.3,58.8,11.1z M14.1,8.4C13.8,8,13.9,7.3,14.3,7l0,0
	c0.4-0.3,1.1-0.2,1.4,0.2l0,0c0.3,0.4,0.2,1.1-0.2,1.4l0,0c-0.2,0.1-0.4,0.2-0.6,0.2l0,0C14.6,8.8,14.3,8.7,14.1,8.4z M55.8,8.6
	L55.8,8.6c-0.5-0.3-0.5-0.9-0.2-1.4l0,0c0.3-0.4,1-0.5,1.4-0.2l0,0c0.4,0.3,0.5,1,0.2,1.4l0,0c-0.2,0.3-0.5,0.4-0.8,0.4l0,0
	C56.1,8.8,55.9,8.7,55.8,8.6z M17.4,6.1c-0.3-0.5-0.1-1.1,0.4-1.4l0,0c0.5-0.3,1.1-0.1,1.4,0.4l0,0c0.3,0.5,0.1,1.1-0.4,1.4l0,0
	c-0.2,0.1-0.3,0.1-0.5,0.1l0,0C18,6.6,17.6,6.4,17.4,6.1z M52.5,6.5c-0.5-0.3-0.6-0.9-0.4-1.4l0,0c0.3-0.5,0.9-0.6,1.4-0.4l0,0
	C54,5,54.2,5.6,53.9,6.1l0,0c-0.2,0.3-0.5,0.5-0.9,0.5l0,0C52.8,6.6,52.6,6.5,52.5,6.5z M21,4.2c-0.2-0.5,0-1.1,0.5-1.3l0,0
	c0.5-0.2,1.1,0,1.3,0.5l0,0c0.2,0.5,0,1.1-0.5,1.3l0,0c-0.1,0.1-0.3,0.1-0.4,0.1l0,0C21.5,4.8,21.1,4.6,21,4.2z M49,4.7
	c-0.5-0.2-0.7-0.8-0.5-1.3l0,0c0.2-0.5,0.8-0.7,1.3-0.5l0,0c0.5,0.2,0.7,0.8,0.5,1.3l0,0c-0.2,0.4-0.5,0.6-0.9,0.6l0,0
	C49.2,4.8,49.1,4.8,49,4.7z M24.7,2.7c-0.2-0.5,0.1-1.1,0.7-1.2l0,0c0.5-0.2,1.1,0.1,1.2,0.7l0,0c0.2,0.5-0.1,1.1-0.7,1.2l0,0
	c-0.1,0-0.2,0-0.3,0l0,0C25.3,3.4,24.9,3.1,24.7,2.7z M45.3,3.4c-0.5-0.2-0.8-0.7-0.7-1.2l0,0c0.2-0.5,0.7-0.8,1.2-0.7l0,0l0,0l0,0
	c0.5,0.1,0.8,0.7,0.7,1.2l0,0c-0.1,0.4-0.5,0.7-1,0.7l0,0C45.5,3.4,45.4,3.4,45.3,3.4z M28.6,1.7c-0.1-0.5,0.3-1.1,0.8-1.2l0,0
	c0.5-0.1,1.1,0.3,1.2,0.8l0,0c0.1,0.5-0.3,1.1-0.8,1.2l0,0c-0.1,0-0.1,0-0.2,0l0,0C29.1,2.5,28.7,2.2,28.6,1.7z M41.5,2.5
	c-0.5-0.1-0.9-0.6-0.8-1.2l0,0c0.1-0.5,0.6-0.9,1.1-0.8l0,0c0.6,0.1,0.9,0.6,0.8,1.2l0,0C42.5,2.2,42.1,2.5,41.5,2.5L41.5,2.5
	L41.5,2.5z M32.6,1.1c0-0.5,0.4-1,1-1l0,0c0.5,0,1,0.4,1,0.9l0,0c0,0.5-0.4,1-0.9,1.1l0,0c0,0,0,0-0.1,0l0,0
	C33.1,2,32.6,1.6,32.6,1.1z M37.6,2L37.6,2c-0.5,0-1-0.5-0.9-1l0,0c0-0.6,0.5-1,1.1-1l0,0c0.6,0,1,0.5,0.9,1.1l0,0
	C38.6,1.6,38.2,2,37.6,2L37.6,2L37.6,2z"/>
<g>
	<path class="st1" d="M41.7,46c-0.2,0-0.4-0.2-0.5-0.4c-0.1-0.3,0.1-0.5,0.4-0.6c1-0.2,2.1-0.5,3-0.9s1.7-0.8,2.5-1.3
		c4.5-2.9,7.2-7.9,7.2-13.3c0-4.4-1.7-8.5-4.9-11.5c-3-2.8-6.8-4.4-10.9-4.4c-8.8,0-15.9,7.1-15.9,15.9c0,5.4,2.7,10.3,7.1,13.3
		c0.2,0.2,0.3,0.5,0.1,0.7c-0.2,0.2-0.5,0.3-0.7,0.1c-4.7-3.1-7.6-8.4-7.6-14.1c0-9.3,7.6-16.9,16.9-16.9c4.4,0,8.5,1.7,11.6,4.7
		c3.4,3.2,5.2,7.5,5.2,12.2c0,5.7-2.9,11-7.7,14.2c-0.8,0.5-1.7,1-2.6,1.4C43.9,45.5,42.9,45.8,41.7,46L41.7,46z"/>
	<path class="st1" d="M35.9,40.9h-2c-0.2,0-0.5-0.2-0.5-0.4l-0.6-3.4c0-0.1,0-0.1,0-0.2l0.6-3.1l-3.2-0.7c-0.1,0-0.3-0.1-0.3-0.3
		l-1.4-2.7c-0.1-0.2-0.1-0.4,0-0.5l2.7-3.5c0.1-0.1,0.3-0.2,0.4-0.2l4.1,0.2c0.1,0,0.3,0.1,0.3,0.2l1.7,1.9c0.6-0.2,1-0.3,1.2-0.3
		c0.2-0.3,0.6-1.3,1-2.1l-0.2-0.9l-1,0.4c-0.1,0.1-0.3,0-0.4,0c-0.1-0.1-0.2-0.2-0.2-0.4l-0.2-1.5L37.1,23l-1.7,0.5l-0.6,1
		c-0.1,0.2-0.4,0.3-0.6,0.2l-3.4-1c-0.1,0-0.3-0.1-0.3-0.3c-0.1-0.1-0.1-0.3,0-0.4l1.2-2.7c0.1-0.2,0.3-0.3,0.4-0.3c1.1,0,2,0,2.5,0
		c-0.1-0.4-0.4-1.1-0.6-1.7c-0.1-0.2,0-0.3,0.1-0.5c0.1-0.1,0.3-0.2,0.4-0.2c0.7,0.1,1.6,0.1,1.8,0.1c0.2-0.1,0.8-0.3,2.9-0.9
		c0.1,0,0.2,0,0.3,0c1.1,0.5,2.4,1.2,2.6,1.2s2.7,0.3,4.3,0.5l2.8-1.3c0.2-0.1,0.5,0,0.7,0.2c0.1,0.2,0,0.5-0.2,0.7l-3,1.4
		c-0.1,0-0.2,0.1-0.3,0c-4.4-0.5-4.6-0.6-4.6-0.6c-0.2,0-1.4-0.6-2.6-1.2c-1.1,0.3-2.3,0.7-2.5,0.8c-0.1,0.1-0.2,0.2-1.6,0.1
		c0.7,1.8,0.5,2,0.4,2.2C35.4,20.9,35.2,21,35,21s-1.4,0-2.7,0l-0.8,1.9l2.5,0.7l0.5-0.9c0.1-0.1,0.2-0.2,0.3-0.2l2.1-0.6
		c0.1,0,0.3,0,0.4,0l1.2,0.6c0.1,0.1,0.2,0.2,0.3,0.4l0.1,1.1l0.9-0.3c0.1,0,0.3,0,0.4,0c0.1,0.1,0.2,0.2,0.2,0.3l0.3,1.7
		c0,0.1,0,0.2,0,0.3c-1.2,2.9-1.5,3-1.9,2.8c-0.2,0-0.9,0.2-1.4,0.4c-0.2,0.1-0.4,0-0.5-0.1l-1.7-2l-3.6-0.2L29.2,30l1.1,2.2
		l3.5,0.8c0.3,0.1,0.4,0.3,0.4,0.6l-0.7,3.5L34,40h1.3l2.8-3.1l2.7-2.2l-0.7-0.8C40,33.8,40,33.6,40,33.5l0.8-4.4
		c0-0.1,0.1-0.3,0.2-0.3c0.1-0.1,0.3-0.1,0.4-0.1l2.4,0.6l0.8-0.3l-0.1-1.6c0-0.2,0.1-0.4,0.3-0.5c0.2-0.1,0.4,0,0.5,0.1l2.2,2
		c0.1,0.1,0.1,0.2,0.2,0.3l0.5,3.5l2-1.8c0.1-0.1,0.3-0.2,0.5-0.1c0.2,0.1,0.3,0.2,0.3,0.4l0.7,3l1.5,1.8c0.2,0.2,0.1,0.5-0.1,0.7
		s-0.5,0.1-0.7-0.1l-1.6-1.9c0-0.1-0.1-0.1-0.1-0.2l-0.6-2.3l-1.6,1.4c-0.1,0.1-0.3,0.2-0.5,0.1l-0.6-0.2c-0.2-0.1-0.3-0.2-0.4-0.4
		l-0.5-3.6l-1.2-1.1v0.7c0,0.2-0.1,0.4-0.3,0.5l-1.2,0.5c-0.1,0-0.2,0-0.3,0l-2.1-0.5l-0.7,3.6l0.9,1c0.1,0.1,0.1,0.2,0.1,0.4
		c0,0.1-0.1,0.3-0.2,0.3l-3,2.5l-2.9,3.2C36.1,40.9,36,40.9,35.9,40.9z"/>
	<path class="st1" d="M41.9,41.8c-0.1,0-0.2,0-0.3-0.1L40,40.5c-0.2-0.2-0.3-0.5-0.1-0.7l1.2-1.7c0.1-0.2,0.4-0.3,0.6-0.2l1.8,0.6
		c0.1,0,0.3,0.2,0.3,0.3c0.1,0.1,0,0.3,0,0.4l-1.3,2.4C42.2,41.7,42.1,41.8,41.9,41.8L41.9,41.8z M41,40l0.8,0.6l0.8-1.3L41.8,39
		L41,40z"/>
</g>
<g>
	<path class="st1" d="M18.8,58c-0.1,0-0.3-0.1-0.4-0.2c-0.2-0.2-0.2-0.5,0-0.7c0.3-0.3,3.3-3.1,5.2-3.1h13.3c0.7,0,1.4-0.2,2-0.5
		l15.5-8.6c1.1-0.6,1.5-1.9,0.9-2.9c-0.5-1.1-1.8-1.5-2.9-1l-7.7,4.1c-0.2,0.1-0.5,0-0.7-0.2c-0.1-0.2,0-0.5,0.2-0.7l7.7-4.1
		c1.6-0.8,3.4-0.1,4.2,1.4c0.8,1.5,0.2,3.5-1.4,4.3l-15.5,8.6c-0.8,0.4-1.6,0.6-2.5,0.6H23.4c-1.1,0-3.3,1.7-4.5,2.8
		C19,57.9,18.9,58,18.8,58z"/>
	<path class="st1" d="M13.6,50.5c-0.1,0-0.3-0.1-0.4-0.2c-0.2-0.2-0.2-0.5,0-0.7l5.7-5.2c0.1-0.1,3.2-3.2,8-2.1
		c1.1,0.2,1.9,0.3,2.7,0.3h9.2c1.8,0,3.3,1.5,3.3,3.3s-1.5,3.3-3.3,3.3h-8.3c-0.3,0-0.5-0.2-0.5-0.5s0.2-0.5,0.5-0.5h8.3
		c1.3,0,2.3-1,2.3-2.3s-1-2.3-2.3-2.3h-9.2c-0.9,0-1.8-0.1-3-0.4c-4.2-0.9-7,1.8-7.1,1.9l-5.7,5.3C13.9,50.5,13.8,50.5,13.6,50.5z"
		/>
</g>
</svg>
