<?xml version="1.0" encoding="utf-8"?>
<!-- Generator: Adobe Illustrator 22.1.0, SVG Export Plug-In . SVG Version: 6.00 Build 0)  -->
<svg version="1.1" id="Calque_1" xmlns="http://www.w3.org/2000/svg" xmlns:xlink="http://www.w3.org/1999/xlink" x="0px" y="0px"
	 viewBox="0 0 71.8 70.6" style="enable-background:new 0 0 71.8 70.6;" xml:space="preserve">
<style type="text/css">
	.st0{fill:#573A2D;}
	.st1{fill:#FDA601;}
</style>
<path class="st0" d="M39.1,70.6C17.6,70.6,0,53.1,0,31.5c0-3,0.3-6,1-8.9c0-0.2,0.2-0.3,0.4-0.4C3.6,21.7,5.9,21.3,8,21
	c3.1-0.4,6-0.5,8.6-0.3c0.2,0,0.3,0.1,0.4,0.2c0.2,0.3,4,6.6,2.1,15.9c0,0.1-0.1,0.3-0.2,0.3l-6.4,4c3.1,6.1,7.8,11.3,13.5,15
	l4.7-4.9c0.1-0.1,0.2-0.2,0.4-0.2l0,0c9.5,0,14.9,5.1,15.2,5.3c0.1,0.1,0.2,0.3,0.1,0.4c-0.2,1.8-0.6,3.8-1.2,5.9
	c-0.6,2.3-1.5,4.7-2.6,7.2c-0.1,0.2-0.2,0.3-0.4,0.3C41.2,70.5,40.1,70.6,39.1,70.6z M1.9,23.2C1.3,25.9,1,28.7,1,31.5
	c0,21,17.1,38.1,38.1,38.1c0.9,0,1.8,0,2.7-0.1c1-2.4,1.8-4.7,2.4-6.8c0.6-1.9,1-3.8,1.2-5.5c-1-0.9-6-4.8-14.1-4.9l-4.9,5.1
	c-0.2,0.2-0.4,0.2-0.6,0.1c-6.2-3.9-11.2-9.4-14.5-16c-0.1-0.2,0-0.5,0.2-0.6l6.6-4.1c1.5-7.9-1.3-13.6-1.9-14.8
	c-2.4-0.2-5.2-0.1-8.1,0.3C6.1,22.4,4,22.7,1.9,23.2z"/>
<g>
	<path class="st1" d="M7.3,16.3c-0.3,0-0.5-0.1-0.7-0.3c-0.1-0.1-0.2-0.2-0.2-0.3s-0.1-0.2-0.1-0.4c0-0.3,0.1-0.5,0.3-0.7
		c0.4-0.4,1-0.4,1.4,0c0.2,0.2,0.3,0.4,0.3,0.7c0,0.1,0,0.3-0.1,0.4C8.1,15.8,8.1,15.9,8,16C7.8,16.2,7.6,16.3,7.3,16.3z"/>
	<path class="st1" d="M50.4,68c-0.2-0.5,0-1.1,0.5-1.3l0,0c0.5-0.2,1.1,0,1.3,0.5l0,0c0.2,0.5,0,1.1-0.5,1.3l0,0
		c-0.1,0.1-0.3,0.1-0.5,0.1l0,0C50.9,68.5,50.5,68.3,50.4,68z M53.9,66.1c-0.3-0.5-0.2-1.1,0.3-1.4l0,0c0.5-0.3,1.1-0.2,1.4,0.3l0,0
		c0.3,0.5,0.2,1.1-0.3,1.4l0,0c-0.2,0.1-0.4,0.2-0.5,0.2l0,0C54.4,66.5,54.1,66.4,53.9,66.1z M57.1,63.8c-0.3-0.4-0.3-1,0.1-1.4l0,0
		c0.4-0.4,1.1-0.3,1.4,0.1l0,0c0.3,0.4,0.3,1.1-0.1,1.4l0,0c-0.2,0.1-0.4,0.2-0.6,0.2l0,0C57.6,64.2,57.3,64.1,57.1,63.8z
		 M60.1,61.2c-0.4-0.4-0.4-1,0-1.4l0,0c0.4-0.4,1-0.4,1.4,0l0,0c0.4,0.4,0.4,1,0,1.4l0,0c-0.2,0.2-0.5,0.3-0.7,0.3l0,0
		C60.6,61.5,60.3,61.4,60.1,61.2z M62.8,58.3c-0.4-0.3-0.5-1-0.2-1.4l0,0c0.3-0.4,1-0.5,1.4-0.2l0,0c0.4,0.3,0.5,1,0.2,1.4l0,0
		c-0.2,0.3-0.5,0.4-0.8,0.4l0,0C63.2,58.5,63,58.4,62.8,58.3z M65.2,55.1c-0.5-0.3-0.6-0.9-0.3-1.4l0,0c0.3-0.5,0.9-0.6,1.4-0.3l0,0
		c0.5,0.3,0.6,0.9,0.3,1.4l0,0l0,0l0,0c-0.2,0.3-0.5,0.5-0.9,0.5l0,0C65.5,55.2,65.3,55.2,65.2,55.1z M67.1,51.6
		c-0.5-0.2-0.7-0.8-0.5-1.3l0,0c0.2-0.5,0.8-0.7,1.3-0.5l0,0c0.5,0.2,0.7,0.8,0.5,1.3l0,0c-0.2,0.4-0.5,0.6-0.9,0.6l0,0
		C67.4,51.7,67.3,51.7,67.1,51.6z M68.7,48c-0.5-0.2-0.8-0.7-0.6-1.3l0,0c0.2-0.5,0.7-0.8,1.3-0.6l0,0c0.5,0.2,0.8,0.7,0.6,1.3l0,0
		c-0.1,0.4-0.5,0.7-1,0.7l0,0C68.9,48,68.8,48,68.7,48z M69.8,44.2c-0.5-0.1-0.9-0.6-0.8-1.2l0,0c0.1-0.5,0.6-0.9,1.2-0.8l0,0
		c0.5,0.1,0.9,0.6,0.8,1.2l0,0c-0.1,0.5-0.5,0.8-1,0.8l0,0C70,44.2,69.9,44.2,69.8,44.2z M70.5,40.3c-0.5,0-1-0.5-0.9-1.1l0,0
		c0.1-0.5,0.5-1,1.1-0.9l0,0c0.5,0.1,0.9,0.5,0.9,1.1l0,0C71.6,39.9,71.1,40.3,70.5,40.3L70.5,40.3C70.6,40.3,70.5,40.3,70.5,40.3z
		 M69.8,35.3L69.8,35.3c0-0.6,0.4-1,1-1l0,0c0.6,0,1,0.4,1,1l0,0l0,0l0,0c0,0.5-0.4,1-1,1l0,0l0,0l0,0
		C70.2,36.3,69.8,35.9,69.8,35.3z M69.5,31.5L69.5,31.5c-0.1-0.5,0.3-1,0.9-1.1l0,0c0.5-0.1,1,0.3,1.1,0.9l0,0
		c0.1,0.5-0.3,1-0.9,1.1l0,0h-0.1l0,0C70,32.3,69.5,32,69.5,31.5z M68.7,27.7c-0.1-0.5,0.2-1.1,0.7-1.2l0,0c0.5-0.1,1.1,0.2,1.2,0.7
		l0,0c0.1,0.5-0.2,1.1-0.7,1.2l0,0c-0.1,0-0.2,0-0.2,0l0,0C69.2,28.4,68.8,28.2,68.7,27.7z M67.6,24L67.6,24
		c-0.2-0.5,0.1-1.1,0.6-1.3l0,0c0.5-0.2,1.1,0.1,1.3,0.6l0,0l0,0l0,0c0.2,0.5-0.1,1.1-0.6,1.3l0,0c-0.1,0-0.2,0.1-0.3,0.1l0,0
		C68.1,24.7,67.7,24.4,67.6,24z M66,20.5c-0.2-0.5-0.1-1.1,0.4-1.3l0,0c0.5-0.3,1.1-0.1,1.4,0.4l0,0c0.2,0.5,0.1,1.1-0.4,1.3l0,0
		C67.3,21,67.1,21,66.9,21l0,0C66.5,21,66.2,20.8,66,20.5z M64.1,17.2L64.1,17.2c-0.3-0.5-0.2-1.1,0.3-1.4l0,0
		c0.5-0.3,1.1-0.2,1.4,0.3l0,0l0,0l0,0c0.3,0.5,0.2,1.1-0.3,1.4l0,0c-0.2,0.1-0.4,0.2-0.5,0.2l0,0C64.6,17.6,64.2,17.5,64.1,17.2z
		 M61.7,14.1L61.7,14.1c-0.4-0.4-0.3-1,0.1-1.4l0,0c0.4-0.4,1.1-0.3,1.4,0.1l0,0l0,0l0,0c0.4,0.4,0.3,1.1-0.1,1.4l0,0
		c-0.2,0.2-0.4,0.2-0.6,0.2l0,0C62.2,14.4,61.9,14.3,61.7,14.1z M9.2,12.9c-0.4-0.4-0.4-1-0.1-1.4l0,0l0,0l0,0
		c0.4-0.4,1-0.4,1.4-0.1l0,0c0.4,0.4,0.4,1,0.1,1.4l0,0c-0.2,0.2-0.5,0.3-0.7,0.3l0,0C9.6,13.2,9.4,13.1,9.2,12.9z M59.1,11.3
		L59.1,11.3c-0.4-0.4-0.4-1,0-1.4l0,0c0.4-0.4,1-0.4,1.4,0l0,0c0.4,0.4,0.4,1,0,1.4l0,0c-0.2,0.2-0.5,0.3-0.7,0.3l0,0
		C59.5,11.5,59.3,11.5,59.1,11.3z M11.9,10.1C11.5,9.7,11.6,9,12,8.7l0,0c0.4-0.4,1-0.3,1.4,0.1l0,0c0.4,0.4,0.3,1.1-0.1,1.4l0,0
		c-0.2,0.2-0.4,0.2-0.6,0.2l0,0C12.4,10.4,12.1,10.3,11.9,10.1z M56.1,8.8c-0.4-0.3-0.5-1-0.2-1.4l0,0c0.3-0.4,1-0.5,1.4-0.2l0,0
		l0,0l0,0c0.4,0.3,0.5,1,0.2,1.4l0,0C57.3,8.9,57,9,56.7,9l0,0C56.5,9,56.3,8.9,56.1,8.8z M15,7.6c-0.3-0.4-0.2-1.1,0.3-1.4l0,0l0,0
		l0,0c0.5-0.3,1.1-0.2,1.4,0.3l0,0c0.3,0.4,0.2,1.1-0.3,1.4l0,0C16.2,8,16,8.1,15.8,8.1l0,0C15.5,8,15.2,7.9,15,7.6z M53,6.6
		c-0.5-0.3-0.6-0.9-0.4-1.4l0,0c0.3-0.5,0.9-0.6,1.4-0.3l0,0l0,0l0,0c0.5,0.3,0.6,0.9,0.4,1.4l0,0c-0.2,0.3-0.5,0.5-0.9,0.5l0,0
		C53.3,6.8,53.1,6.7,53,6.6z M18.4,5.4c-0.3-0.5-0.1-1.1,0.4-1.4l0,0c0.5-0.3,1.1-0.1,1.3,0.4l0,0c0.3,0.5,0.1,1.1-0.4,1.4l0,0
		c-0.2,0.1-0.3,0.1-0.5,0.1l0,0C18.9,6,18.5,5.8,18.4,5.4z M49.5,4.9C49,4.7,48.8,4.1,49,3.6l0,0c0.2-0.5,0.8-0.7,1.3-0.5l0,0l0,0
		l0,0c0.5,0.2,0.7,0.8,0.5,1.3l0,0C50.6,4.8,50.3,5,49.9,5l0,0C49.8,5,49.6,4.9,49.5,4.9z M21.9,3.7c-0.2-0.5,0.1-1.1,0.6-1.3l0,0
		C23,2.2,23.6,2.5,23.8,3l0,0c0.2,0.5-0.1,1.1-0.6,1.3l0,0c-0.1,0.1-0.2,0.1-0.4,0.1l0,0C22.5,4.3,22.1,4.1,21.9,3.7z M45.9,3.5
		c-0.5-0.2-0.8-0.7-0.7-1.2l0,0c0.2-0.5,0.7-0.8,1.3-0.6l0,0l0,0l0,0c0.5,0.2,0.8,0.7,0.7,1.2l0,0c-0.1,0.4-0.5,0.7-1,0.7l0,0
		C46.1,3.5,46,3.5,45.9,3.5z M25.7,2.3c-0.1-0.5,0.2-1.1,0.7-1.2l0,0l0,0l0,0c0.5-0.1,1.1,0.2,1.2,0.7l0,0c0.1,0.5-0.2,1.1-0.7,1.2
		l0,0c-0.1,0-0.2,0-0.2,0l0,0C26.2,3.1,25.8,2.8,25.7,2.3z M42.2,2.5c-0.5-0.1-0.9-0.6-0.8-1.2l0,0c0.1-0.5,0.6-0.9,1.2-0.8l0,0
		c0.5,0.1,0.9,0.6,0.8,1.2l0,0c-0.1,0.5-0.5,0.8-1,0.8l0,0C42.3,2.6,42.2,2.6,42.2,2.5z M29.5,1.4c-0.1-0.6,0.3-1.1,0.9-1.1l0,0
		c0.5-0.1,1.1,0.3,1.1,0.9l0,0c0.1,0.5-0.3,1-0.8,1.1l0,0c-0.1,0-0.1,0-0.1,0l0,0C30,2.3,29.6,1.9,29.5,1.4z M38.4,2L38.4,2
		c-0.5,0-1-0.5-0.9-1.1l0,0c0-0.6,0.5-1,1.1-0.9l0,0c0.5,0,1,0.5,0.9,1.1l0,0C39.4,1.6,39,2,38.4,2L38.4,2L38.4,2z M33.5,1
		c0-0.6,0.4-1,1-1l0,0c0.6,0,1,0.4,1,1l0,0c0,0.6-0.4,1-1,1l0,0l0,0l0,0C33.9,1.9,33.5,1.5,33.5,1z"/>
	<path class="st1" d="M47.6,70.1c-0.3,0-0.5-0.1-0.7-0.3c-0.2-0.2-0.3-0.4-0.3-0.7c0-0.3,0.1-0.5,0.3-0.7c0.3-0.3,0.7-0.4,1.1-0.2
		c0.1,0,0.2,0.1,0.3,0.2c0.1,0.1,0.2,0.2,0.2,0.3c0,0.1,0.1,0.2,0.1,0.4c0,0.3-0.1,0.5-0.3,0.7C48.2,69.9,48.1,70,48,70
		C47.8,70.1,47.7,70.1,47.6,70.1z"/>
</g>
<g>
	<path class="st0" d="M31.4,26.7c0.5,0,1.1,0.1,1.5,0.2s0.9,0.4,1.2,0.7c0.3,0.3,0.6,0.7,0.8,1.1c0.2,0.4,0.3,1,0.3,1.5
		s-0.1,0.9-0.2,1.3c-0.1,0.4-0.3,0.8-0.6,1.2c-0.2,0.4-0.5,0.7-0.9,1.1s-0.7,0.7-1,1.1l-3.4,3.5c0.2-0.1,0.5-0.1,0.7-0.2
		c0.2,0,0.5-0.1,0.7-0.1h4.4c0.2,0,0.3,0.1,0.4,0.2c0.1,0.1,0.2,0.2,0.2,0.4v1h-8.7v-0.6c0-0.1,0-0.2,0.1-0.4c0-0.1,0.1-0.2,0.2-0.3
		l4.2-4.2c0.3-0.4,0.7-0.7,0.9-1c0.3-0.3,0.5-0.6,0.7-1c0.2-0.3,0.4-0.7,0.5-1s0.2-0.7,0.2-1.1c0-0.4-0.1-0.7-0.2-1
		s-0.3-0.5-0.5-0.7s-0.5-0.3-0.7-0.4s-0.6-0.1-0.9-0.1s-0.6,0-0.9,0.1s-0.5,0.2-0.7,0.4s-0.4,0.4-0.5,0.6c-0.1,0.2-0.3,0.5-0.3,0.8
		c0,0.2-0.1,0.3-0.2,0.4c-0.1,0.1-0.2,0.1-0.4,0.1h-0.1h-0.1l-0.8-0.1c0.1-0.6,0.2-1.1,0.5-1.6c0.2-0.5,0.5-0.8,0.9-1.1
		s0.8-0.5,1.3-0.7S30.9,26.7,31.4,26.7z"/>
	<path class="st0" d="M44.7,35.2h2v0.9c0,0.1,0,0.2-0.1,0.2c-0.1,0.1-0.1,0.1-0.3,0.1h-1.6v3.4h-1.4v-3.4h-5.8c-0.1,0-0.2,0-0.3-0.1
		c-0.1-0.1-0.1-0.2-0.2-0.3l-0.2-0.8l6.3-8.4h1.5v8.4H44.7z M43.2,29.8c0-0.2,0-0.3,0-0.5s0-0.4,0.1-0.6l-4.7,6.4h4.7v-5.3H43.2z"/>
	<path class="st0" d="M59.1,39.9h-1.8V34h-7v5.9h-1.8v-13h1.8v5.8h7v-5.8h1.8V39.9z"/>
</g>
</svg>
