<?xml version="1.0" encoding="utf-8"?>
<!-- Generator: Adobe Illustrator 22.1.0, SVG Export Plug-In . SVG Version: 6.00 Build 0)  -->
<svg version="1.1" id="Calque_1" xmlns="http://www.w3.org/2000/svg" xmlns:xlink="http://www.w3.org/1999/xlink" x="0px" y="0px"
	 viewBox="0 0 71.4 71.3" style="enable-background:new 0 0 71.4 71.3;" xml:space="preserve">
<style type="text/css">
	.st0{fill:#FDA601;}
	.st1{fill:#573A2D;}
</style>
<path class="st0" d="M33.7,71.3L33.7,71.3L33.7,71.3c-0.5,0-1-0.5-0.9-1.1l0,0c0-0.5,0.5-1,1.1-0.9l0,0c0.5,0,1,0.5,0.9,1.1l0,0
	C34.8,70.9,34.3,71.3,33.7,71.3L33.7,71.3C33.8,71.3,33.8,71.3,33.7,71.3z M36.8,70.4c0-0.6,0.4-1,0.9-1.1l0,0c0.5,0,1,0.4,1,0.9
	l0,0c0,0.5-0.4,1-0.9,1l0,0h-0.1l0,0C37.3,71.3,36.9,70.9,36.8,70.4z M29.6,70.8c-0.5-0.1-0.9-0.6-0.8-1.2l0,0
	c0.1-0.5,0.6-0.9,1.2-0.8l0,0c0.5,0.1,0.9,0.6,0.8,1.2l0,0c-0.1,0.5-0.5,0.8-1,0.8l0,0C29.7,70.8,29.7,70.8,29.6,70.8z M40.8,70
	c-0.1-0.5,0.3-1.1,0.8-1.2l0,0c0.5-0.1,1.1,0.3,1.2,0.8l0,0c0.1,0.5-0.3,1.1-0.8,1.2l0,0l0,0l0,0c-0.1,0-0.1,0-0.2,0l0,0
	C41.4,70.8,40.9,70.5,40.8,70z M25.6,69.9c-0.5-0.2-0.8-0.7-0.7-1.2l0,0c0.2-0.5,0.7-0.8,1.2-0.7l0,0c0.5,0.2,0.8,0.7,0.7,1.2l0,0
	c-0.1,0.4-0.5,0.7-1,0.7l0,0C25.8,69.9,25.7,69.9,25.6,69.9z M44.8,69.2c-0.2-0.5,0.1-1.1,0.7-1.2l0,0c0.5-0.2,1.1,0.1,1.2,0.7l0,0
	c0.2,0.5-0.1,1.1-0.7,1.2l0,0c-0.1,0-0.2,0-0.3,0l0,0C45.3,69.9,44.9,69.6,44.8,69.2z M21.7,68.5c-0.5-0.2-0.7-0.8-0.5-1.3l0,0
	c0.2-0.5,0.8-0.7,1.3-0.5l0,0c0.5,0.2,0.7,0.8,0.5,1.3l0,0c-0.2,0.4-0.5,0.6-0.9,0.6l0,0C21.9,68.6,21.8,68.5,21.7,68.5z M48.6,67.9
	c-0.2-0.5,0-1.1,0.5-1.3l0,0c0.5-0.2,1.1,0,1.3,0.5l0,0c0.2,0.5,0,1.1-0.5,1.3l0,0c-0.1,0.1-0.3,0.1-0.4,0.1l0,0
	C49.2,68.5,48.8,68.3,48.6,67.9z M18,66.6c-0.5-0.3-0.6-0.9-0.4-1.4l0,0c0.3-0.5,0.9-0.6,1.4-0.4l0,0c0.5,0.3,0.6,0.9,0.4,1.4l0,0
	c-0.2,0.3-0.5,0.5-0.9,0.5l0,0C18.3,66.8,18.1,66.7,18,66.6z M52.3,66.2c-0.3-0.5-0.1-1.1,0.4-1.4l0,0c0.5-0.3,1.1-0.1,1.4,0.4l0,0
	c0.3,0.5,0.1,1.1-0.4,1.4l0,0c-0.2,0.1-0.3,0.1-0.5,0.1l0,0C52.8,66.7,52.5,66.5,52.3,66.2z M14.5,64.4L14.5,64.4L14.5,64.4
	C14,64.1,14,63.5,14.3,63l0,0c0.3-0.4,1-0.5,1.4-0.2l0,0c0.4,0.3,0.5,1,0.2,1.4l0,0c-0.2,0.3-0.5,0.4-0.8,0.4l0,0
	C14.9,64.6,14.7,64.5,14.5,64.4z M55.7,64c-0.3-0.5-0.2-1.1,0.2-1.4l0,0c0.4-0.3,1.1-0.2,1.4,0.2l0,0c0.3,0.4,0.2,1.1-0.2,1.4l0,0
	l0,0l0,0c-0.2,0.1-0.4,0.2-0.6,0.2l0,0C56.2,64.4,55.9,64.3,55.7,64z M11.3,61.7c-0.4-0.4-0.4-1,0-1.4l0,0c0.4-0.4,1-0.4,1.4-0.1
	l0,0c0.4,0.4,0.4,1,0.1,1.4l0,0c-0.2,0.2-0.5,0.3-0.7,0.3l0,0C11.7,62,11.5,61.9,11.3,61.7z M58.8,61.5c-0.4-0.4-0.4-1,0-1.4l0,0
	c0.4-0.4,1-0.4,1.4,0l0,0c0.4,0.4,0.4,1,0,1.4l0,0l0,0l0,0c-0.2,0.2-0.4,0.3-0.7,0.3l0,0C59.3,61.8,59,61.7,58.8,61.5z M8.5,58.7
	c-0.4-0.4-0.3-1.1,0.1-1.4l0,0C9,56.9,9.7,57,10,57.4l0,0c0.4,0.4,0.3,1-0.1,1.4l0,0C9.7,59,9.5,59,9.2,59l0,0
	C8.9,59,8.7,58.9,8.5,58.7z M61.7,58.7c-0.4-0.4-0.5-1-0.1-1.4l0,0c0.4-0.4,1-0.5,1.4-0.1l0,0c0.4,0.4,0.5,1,0.1,1.4l0,0
	c-0.2,0.2-0.5,0.4-0.8,0.4l0,0C62.1,58.9,61.9,58.8,61.7,58.7z M6,55.4c-0.3-0.5-0.2-1.1,0.3-1.4l0,0c0.5-0.3,1.1-0.2,1.4,0.3l0,0
	c0.3,0.5,0.2,1.1-0.3,1.4l0,0c-0.2,0.1-0.4,0.2-0.5,0.2l0,0C6.5,55.8,6.2,55.7,6,55.4z M64.2,55.5c-0.5-0.3-0.6-0.9-0.3-1.4l0,0
	c0.3-0.5,0.9-0.6,1.4-0.3l0,0c0.5,0.3,0.6,0.9,0.3,1.4l0,0c-0.2,0.3-0.5,0.5-0.8,0.5l0,0C64.5,55.7,64.4,55.6,64.2,55.5z M3.9,51.8
	c-0.2-0.5-0.1-1.1,0.4-1.3l0,0c0.5-0.2,1.1-0.1,1.3,0.4l0,0c0.2,0.5,0,1.1-0.4,1.3l0,0c-0.1,0.1-0.3,0.1-0.5,0.1l0,0
	C4.4,52.4,4,52.1,3.9,51.8z M66.3,52.1c-0.5-0.2-0.7-0.9-0.4-1.3l0,0c0.2-0.5,0.8-0.7,1.3-0.4l0,0c0.5,0.2,0.7,0.9,0.5,1.3l0,0
	c-0.2,0.4-0.5,0.6-0.9,0.6l0,0C66.6,52.2,66.5,52.1,66.3,52.1z M2.2,48c-0.2-0.5,0.1-1.1,0.6-1.3l0,0c0.5-0.2,1.1,0.1,1.3,0.6l0,0
	c0.2,0.5-0.1,1.1-0.6,1.3l0,0c-0.1,0-0.2,0.1-0.3,0.1l0,0C2.7,48.6,2.4,48.4,2.2,48z M68,48.4c-0.5-0.2-0.8-0.8-0.6-1.3l0,0
	c0.2-0.5,0.8-0.8,1.3-0.6l0,0c0.5,0.2,0.8,0.8,0.6,1.3l0,0c-0.2,0.4-0.5,0.7-0.9,0.7l0,0C68.2,48.5,68.1,48.4,68,48.4z M1,44
	c-0.1-0.5,0.2-1.1,0.7-1.2l0,0c0.5-0.1,1.1,0.2,1.2,0.7l0,0C3,44,2.7,44.6,2.2,44.7l0,0c-0.1,0-0.2,0-0.2,0l0,0
	C1.5,44.8,1.1,44.5,1,44z M69.3,44.6c-0.5-0.1-0.9-0.7-0.7-1.2l0,0c0.1-0.5,0.7-0.9,1.2-0.8l0,0c0.5,0.1,0.9,0.7,0.8,1.2l0,0l0,0
	l0,0c-0.1,0.5-0.5,0.8-1,0.8l0,0C69.4,44.6,69.3,44.6,69.3,44.6z M0.3,39.9c-0.1-0.5,0.3-1,0.9-1.1l0,0c0.5-0.1,1,0.3,1.1,0.9l0,0
	c0.1,0.5-0.3,1-0.9,1.1l0,0H1.3l0,0C0.8,40.8,0.3,40.4,0.3,39.9z M70.1,40.6c-0.6-0.1-1-0.5-0.9-1.1l0,0c0.1-0.5,0.6-0.9,1.1-0.9
	l0,0c0.5,0.1,0.9,0.6,0.9,1.1l0,0C71.1,40.2,70.7,40.6,70.1,40.6L70.1,40.6C70.1,40.6,70.1,40.6,70.1,40.6z M0,35.8L0,35.8L0,35.8
	c0-0.1,0-0.1,0-0.1l0,0l0,0l0,0c0-0.6,0.5-1,1-1l0,0c0.5,0,1,0.4,1,1l0,0c0,0,0,0,0,0.1l0,0c0,0,0,0,0,0.1l0,0c0,0.6-0.4,1-1,1l0,0
	l0,0l0,0C0.5,36.8,0,36.4,0,35.8z M69.4,35.6c0-0.6,0.4-1,1-1l0,0c0.5,0,1,0.5,1,1l0,0c0,0.6-0.5,1-1,1l0,0l0,0l0,0
	C69.8,36.6,69.4,36.1,69.4,35.6z M1.1,32.6c-0.5-0.1-0.9-0.6-0.9-1.1l0,0c0.1-0.5,0.6-0.9,1.1-0.9l0,0c0.5,0.1,0.9,0.5,0.9,1.1l0,0
	C2.2,32.2,1.7,32.6,1.1,32.6L1.1,32.6C1.2,32.6,1.2,32.6,1.1,32.6z M69.2,31.7c-0.1-0.5,0.3-1,0.9-1.1l0,0c0.6-0.1,1,0.3,1.1,0.9
	l0,0c0.1,0.6-0.3,1.1-0.9,1.1l0,0h-0.1l0,0C69.7,32.6,69.2,32.2,69.2,31.7z M1.7,28.6c-0.5-0.1-0.9-0.7-0.8-1.2l0,0
	c0.1-0.5,0.7-0.9,1.2-0.7l0,0c0.5,0.1,0.9,0.7,0.7,1.2l0,0c-0.1,0.5-0.5,0.8-1,0.8l0,0C1.9,28.7,1.8,28.7,1.7,28.6z M68.5,27.8
	c-0.1-0.5,0.2-1.1,0.7-1.2l0,0c0.5-0.1,1.1,0.2,1.2,0.7l0,0c0.1,0.5-0.2,1.1-0.7,1.2l0,0c-0.1,0-0.2,0-0.2,0l0,0
	C69,28.6,68.6,28.3,68.5,27.8z M2.8,24.7c-0.5-0.2-0.8-0.8-0.6-1.3l0,0l0,0l0,0c0.2-0.5,0.8-0.8,1.3-0.6l0,0C4,23,4.3,23.6,4.1,24.1
	l0,0c-0.1,0.4-0.5,0.6-0.9,0.6l0,0C3,24.8,2.9,24.8,2.8,24.7z M67.4,24.1c-0.2-0.5,0.1-1.1,0.6-1.3l0,0c0.5-0.2,1.1,0.1,1.3,0.6l0,0
	c0.2,0.5-0.1,1.1-0.6,1.3l0,0c-0.1,0-0.2,0.1-0.3,0.1l0,0C67.9,24.7,67.5,24.5,67.4,24.1z M4.3,21c-0.5-0.2-0.7-0.9-0.5-1.4l0,0
	c0.2-0.5,0.9-0.7,1.4-0.4l0,0c0.5,0.2,0.7,0.9,0.4,1.3l0,0c-0.2,0.4-0.5,0.6-0.9,0.6l0,0C4.6,21.1,4.4,21.1,4.3,21z M65.8,20.5
	c-0.2-0.5,0-1.1,0.4-1.3l0,0c0.5-0.2,1.1,0,1.3,0.4l0,0c0.2,0.5,0,1.1-0.5,1.3l0,0C66.9,21,66.7,21,66.6,21l0,0
	C66.3,21,66,20.8,65.8,20.5z M6.2,17.4c-0.5-0.3-0.6-0.9-0.3-1.4l0,0c0.3-0.5,0.9-0.6,1.4-0.3l0,0c0.5,0.3,0.6,0.9,0.3,1.4l0,0
	c-0.2,0.3-0.5,0.4-0.8,0.4l0,0C6.5,17.6,6.3,17.6,6.2,17.4z M63.8,17.1c-0.3-0.5-0.2-1.1,0.3-1.4l0,0c0.5-0.3,1.1-0.2,1.4,0.3l0,0
	c0.3,0.5,0.2,1.1-0.3,1.4l0,0c-0.2,0.1-0.4,0.2-0.5,0.2l0,0C64.3,17.6,64,17.4,63.8,17.1z M8.5,14.1c-0.4-0.4-0.5-1-0.1-1.4l0,0l0,0
	l0,0c0.3-0.4,1-0.5,1.4-0.1l0,0c0.4,0.4,0.5,1,0.1,1.4l0,0c-0.2,0.2-0.5,0.4-0.8,0.4l0,0C8.9,14.4,8.7,14.3,8.5,14.1z M61.5,14
	c-0.4-0.4-0.3-1,0.1-1.4l0,0c0.4-0.4,1.1-0.3,1.4,0.1l0,0c0.4,0.4,0.3,1.1-0.1,1.4l0,0c-0.2,0.2-0.4,0.2-0.7,0.2l0,0
	C62,14.3,61.7,14.2,61.5,14z M11.2,11.1c-0.4-0.4-0.4-1,0-1.4l0,0c0.4-0.4,1-0.4,1.4,0l0,0c0.4,0.4,0.4,1,0,1.4l0,0
	c-0.2,0.2-0.4,0.3-0.7,0.3l0,0C11.6,11.4,11.4,11.3,11.2,11.1z M58.8,11.1c-0.4-0.4-0.4-1,0-1.4l0,0c0.4-0.4,1-0.4,1.4,0l0,0
	c0.4,0.4,0.4,1,0,1.4l0,0c-0.2,0.2-0.5,0.3-0.7,0.3l0,0C59.2,11.4,59,11.3,58.8,11.1z M14.2,8.4C13.9,8,14,7.3,14.4,7l0,0
	c0.4-0.3,1.1-0.2,1.4,0.2l0,0c0.3,0.4,0.2,1.1-0.2,1.4l0,0c-0.2,0.1-0.4,0.2-0.6,0.2l0,0C14.7,8.8,14.4,8.7,14.2,8.4z M55.8,8.6
	c-0.5-0.3-0.5-0.9-0.2-1.4l0,0c0.3-0.4,1-0.5,1.4-0.2l0,0c0.4,0.3,0.5,1,0.2,1.4l0,0c-0.2,0.3-0.5,0.4-0.8,0.4l0,0
	C56.2,8.8,56,8.7,55.8,8.6z M17.5,6.1c-0.3-0.5-0.1-1.1,0.4-1.4l0,0l0,0l0,0c0.5-0.3,1.1-0.1,1.4,0.4l0,0c0.3,0.5,0.1,1.1-0.4,1.4
	l0,0c-0.1,0.1-0.3,0.1-0.5,0.1l0,0C18,6.6,17.7,6.4,17.5,6.1z M52.5,6.5c-0.5-0.3-0.6-0.9-0.4-1.4l0,0c0.3-0.5,0.9-0.7,1.4-0.4l0,0
	C54,5,54.1,5.6,53.9,6.1l0,0c-0.2,0.3-0.5,0.5-0.9,0.5l0,0C52.8,6.6,52.7,6.5,52.5,6.5z M21,4.2c-0.2-0.5,0-1.1,0.5-1.3l0,0l0,0l0,0
	c0.5-0.2,1.1,0,1.3,0.5l0,0c0.2,0.5,0,1.1-0.5,1.3l0,0c-0.1,0.1-0.3,0.1-0.4,0.1l0,0C21.6,4.8,21.2,4.6,21,4.2z M49,4.7
	c-0.5-0.2-0.7-0.8-0.5-1.3l0,0c0.2-0.5,0.8-0.7,1.3-0.5l0,0c0.5,0.2,0.7,0.8,0.5,1.3l0,0c-0.2,0.4-0.5,0.6-0.9,0.6l0,0
	C49.3,4.8,49.2,4.8,49,4.7z M24.8,2.7c-0.2-0.5,0.1-1.1,0.7-1.2l0,0l0,0l0,0c0.5-0.2,1.1,0.1,1.2,0.7l0,0c0.1,0.5-0.2,1.1-0.7,1.2
	l0,0c-0.1,0-0.2,0-0.3,0l0,0C25.3,3.4,24.9,3.2,24.8,2.7z M45.3,3.4L45.3,3.4c-0.5-0.2-0.8-0.7-0.7-1.2l0,0c0.2-0.5,0.7-0.8,1.2-0.7
	l0,0l0,0l0,0c0.5,0.1,0.8,0.7,0.7,1.2l0,0c-0.1,0.4-0.5,0.7-1,0.7l0,0C45.5,3.4,45.4,3.4,45.3,3.4z M28.7,1.7
	c-0.1-0.5,0.3-1.1,0.8-1.2l0,0l0,0l0,0c0.5-0.1,1.1,0.3,1.2,0.8l0,0c0.1,0.5-0.3,1.1-0.8,1.2l0,0c0,0-0.1,0-0.2,0l0,0
	C29.2,2.5,28.8,2.2,28.7,1.7z M41.5,2.5L41.5,2.5c-0.5-0.1-0.9-0.6-0.8-1.2l0,0c0.1-0.5,0.6-0.9,1.2-0.8l0,0l0,0l0,0
	c0.5,0.1,0.9,0.6,0.8,1.2l0,0c-0.1,0.5-0.5,0.8-1,0.8l0,0C41.6,2.5,41.6,2.5,41.5,2.5z M32.7,1.1c0-0.6,0.4-1,0.9-1.1l0,0l0,0l0,0
	c0.5,0,1,0.4,1,0.9l0,0c0,0.5-0.4,1-0.9,1.1l0,0c0,0,0,0-0.1,0l0,0C33.1,2,32.7,1.6,32.7,1.1z M37.6,2L37.6,2c-0.5,0-1-0.5-0.9-1
	l0,0c0-0.6,0.5-1,1-0.9l0,0l0,0l0,0c0.5,0,1,0.5,0.9,1.1l0,0C38.7,1.6,38.2,2,37.6,2L37.6,2C37.7,2,37.7,2,37.6,2z"/>
<path class="st1" d="M38.8,46.2c-8.7,0-15.8-7.1-15.8-15.8s7.1-15.8,15.8-15.8s15.8,7.1,15.8,15.8S47.5,46.2,38.8,46.2z M38.8,15.6
	c-8.2,0-14.8,6.6-14.8,14.8s6.6,14.8,14.8,14.8s14.8-6.6,14.8-14.8S46.9,15.6,38.8,15.6z"/>
<g>
	<path class="st1" d="M38.8,32.1c-2.7,0-4.9-2.2-4.9-4.9s2.2-4.9,4.9-4.9s4.9,2.2,4.9,4.9C43.6,29.9,41.4,32.1,38.8,32.1z
		 M38.8,23.3c-2.1,0-3.9,1.7-3.9,3.9s1.7,3.9,3.9,3.9s3.9-1.7,3.9-3.9S40.9,23.3,38.8,23.3z"/>
	<path class="st1" d="M31.9,44.6c-0.3,0-0.5-0.2-0.5-0.5v-3.9c0-4,3.3-7.3,7.3-7.3s7.3,3.3,7.3,7.3v3.9c0,0.3-0.2,0.5-0.5,0.5
		S45,44.4,45,44.1v-3.9c0-3.5-2.8-6.3-6.3-6.3s-6.3,2.8-6.3,6.3v3.9C32.4,44.4,32.2,44.6,31.9,44.6z"/>
	<g>
		<path class="st1" d="M43.1,45.6c-0.3,0-0.5-0.2-0.5-0.5v-4.8c0-0.3,0.2-0.5,0.5-0.5s0.5,0.2,0.5,0.5v4.8
			C43.6,45.3,43.4,45.6,43.1,45.6z"/>
		<path class="st1" d="M34.4,45.6c-0.3,0-0.5-0.2-0.5-0.5v-4.8c0-0.3,0.2-0.5,0.5-0.5s0.5,0.2,0.5,0.5v4.8
			C34.9,45.3,34.6,45.6,34.4,45.6z"/>
	</g>
</g>
<path class="st1" d="M51.4,30.9c-0.3,0-0.5-0.2-0.5-0.5c0-6.7-5.5-12.2-12.2-12.2c-0.3,0-0.5-0.2-0.5-0.5s0.2-0.5,0.5-0.5
	c7.3,0,13.2,5.9,13.2,13.2C51.9,30.7,51.7,30.9,51.4,30.9z"/>
<path class="st1" d="M14.8,57.2c-0.6,0-1.1-0.2-1.5-0.6l0,0c-0.4-0.4-0.6-1-0.6-1.5s0.2-1.1,0.6-1.5l10.5-10.5
	c0.8-0.8,2.3-0.8,3.1,0c0.4,0.4,0.6,1,0.6,1.5s-0.2,1.1-0.6,1.5L16.4,56.6C15.9,57,15.3,57.2,14.8,57.2z M14,55.9
	c0.5,0.5,1.2,0.5,1.7,0l10.5-10.5c0.2-0.2,0.3-0.5,0.3-0.8s-0.1-0.6-0.3-0.8c-0.4-0.4-1.2-0.4-1.7,0L14,54.3
	c-0.2,0.2-0.3,0.5-0.3,0.8C13.6,55.4,13.7,55.7,14,55.9z"/>
<path class="st1" d="M27.1,44.4c-0.1,0-0.3,0-0.4-0.1l-1.1-1.1c-0.1-0.1-0.1-0.2-0.1-0.4c0-0.1,0.1-0.3,0.1-0.4l1.7-1.7
	c0.2-0.2,0.5-0.2,0.7,0l1.1,1.1c0.2,0.2,0.2,0.5,0,0.7l-1.7,1.7C27.3,44.4,27.2,44.4,27.1,44.4z M26.6,42.8l0.4,0.4l1-1l-0.4-0.4
	L26.6,42.8z"/>
</svg>
