<?xml version="1.0" encoding="utf-8"?>
<!-- Generator: Adobe Illustrator 22.1.0, SVG Export Plug-In . SVG Version: 6.00 Build 0)  -->
<svg version="1.1" id="Calque_1" xmlns="http://www.w3.org/2000/svg" xmlns:xlink="http://www.w3.org/1999/xlink" x="0px" y="0px"
	 viewBox="0 0 71.3 71.3" style="enable-background:new 0 0 71.3 71.3;" xml:space="preserve">
<style type="text/css">
	.st0{fill:#FDA601;}
	.st1{fill:#573A2D;}
</style>
<path class="st0" d="M33.7,71.3L33.7,71.3L33.7,71.3c-0.5,0-1-0.5-0.9-1l0,0c0-0.6,0.5-1,1-1l0,0c0.5,0,1,0.5,1,1.1l0,0
	C34.7,70.9,34.3,71.3,33.7,71.3L33.7,71.3L33.7,71.3z M36.8,70.4c0-0.6,0.4-1,0.9-1.1l0,0c0.5,0,1,0.4,1.1,0.9l0,0
	c0,0.5-0.4,1-0.9,1l0,0c0,0,0,0-0.1,0l0,0C37.2,71.3,36.8,70.9,36.8,70.4z M29.6,70.8L29.6,70.8L29.6,70.8c-0.5-0.1-0.9-0.6-0.8-1.2
	l0,0c0.1-0.5,0.6-0.9,1.1-0.8l0,0c0.5,0.1,0.9,0.6,0.8,1.2l0,0C30.6,70.5,30.2,70.8,29.6,70.8L29.6,70.8
	C29.7,70.8,29.6,70.8,29.6,70.8z M40.8,70c-0.1-0.5,0.3-1.1,0.8-1.2l0,0c0.5-0.1,1.1,0.3,1.2,0.8l0,0c0.1,0.5-0.3,1.1-0.8,1.2l0,0
	c-0.1,0-0.1,0-0.2,0l0,0C41.3,70.8,40.9,70.5,40.8,70z M25.5,69.9c-0.5-0.2-0.8-0.7-0.7-1.2l0,0c0.2-0.5,0.7-0.8,1.2-0.7l0,0
	c0.5,0.2,0.8,0.7,0.7,1.2l0,0c-0.1,0.4-0.5,0.7-1,0.7l0,0C25.7,69.9,25.6,69.9,25.5,69.9z M44.7,69.2c-0.2-0.5,0.1-1.1,0.7-1.2l0,0
	c0.5-0.2,1.1,0.1,1.2,0.7l0,0c0.2,0.5-0.1,1.1-0.7,1.2l0,0c-0.1,0-0.2,0-0.3,0l0,0C45.3,69.9,44.9,69.6,44.7,69.2z M21.6,68.5
	c-0.5-0.2-0.8-0.8-0.5-1.3l0,0c0.2-0.5,0.8-0.7,1.3-0.5l0,0c0.5,0.2,0.8,0.8,0.5,1.3l0,0c-0.2,0.4-0.5,0.6-0.9,0.6l0,0
	C21.9,68.6,21.7,68.5,21.6,68.5z M48.6,67.9c-0.2-0.5,0-1.1,0.5-1.3l0,0c0.5-0.2,1.1,0,1.3,0.5l0,0c0.2,0.5,0,1.1-0.5,1.3l0,0
	c-0.1,0.1-0.3,0.1-0.4,0.1l0,0C49.1,68.5,48.7,68.3,48.6,67.9z M17.9,66.6c-0.5-0.3-0.6-0.9-0.4-1.4l0,0c0.3-0.5,0.9-0.6,1.4-0.4
	l0,0c0.5,0.3,0.6,0.9,0.4,1.4l0,0c-0.2,0.3-0.5,0.5-0.9,0.5l0,0C18.2,66.8,18.1,66.7,17.9,66.6z M52.2,66.2
	c-0.3-0.5-0.1-1.1,0.4-1.4l0,0c0.5-0.3,1.1-0.1,1.4,0.4l0,0c0.3,0.5,0.1,1.1-0.4,1.4l0,0c-0.1,0.1-0.3,0.1-0.5,0.1l0,0
	C52.7,66.7,52.4,66.5,52.2,66.2z M14.4,64.4L14.4,64.4L14.4,64.4c-0.4-0.3-0.5-0.9-0.2-1.4l0,0c0.3-0.4,1-0.5,1.4-0.2l0,0
	c0.4,0.3,0.5,1,0.2,1.4l0,0c-0.2,0.3-0.5,0.4-0.8,0.4l0,0C14.8,64.6,14.6,64.5,14.4,64.4z M55.6,64c-0.3-0.5-0.2-1.1,0.2-1.4l0,0
	c0.4-0.3,1.1-0.2,1.4,0.2l0,0c0.3,0.4,0.2,1.1-0.2,1.4l0,0c-0.2,0.1-0.4,0.2-0.6,0.2l0,0C56.1,64.4,55.8,64.3,55.6,64z M11.3,61.7
	c-0.4-0.4-0.4-1,0-1.4l0,0c0.4-0.4,1-0.4,1.4,0l0,0c0.4,0.4,0.4,1,0,1.4l0,0C12.5,61.9,12.2,62,12,62l0,0
	C11.7,62,11.4,61.9,11.3,61.7z M58.8,61.5c-0.4-0.4-0.4-1,0-1.4l0,0c0.4-0.4,1-0.4,1.4,0l0,0c0.4,0.4,0.4,1,0,1.4l0,0
	c-0.2,0.2-0.4,0.3-0.7,0.3l0,0C59.3,61.8,59,61.7,58.8,61.5z M8.4,58.7c-0.4-0.4-0.3-1.1,0.1-1.4l0,0c0.4-0.4,1-0.3,1.4,0.1l0,0
	c0.3,0.4,0.3,1-0.1,1.4l0,0C9.6,59,9.4,59,9.2,59l0,0C8.9,59,8.6,58.9,8.4,58.7z M61.6,58.7c-0.4-0.4-0.5-1-0.1-1.4l0,0
	c0.3-0.4,1-0.5,1.4-0.1l0,0c0.4,0.4,0.5,1,0.1,1.4l0,0l0,0l0,0c-0.2,0.2-0.5,0.4-0.8,0.4l0,0C62,58.9,61.8,58.8,61.6,58.7z
	 M5.9,55.4c-0.3-0.5-0.2-1.1,0.3-1.4l0,0c0.5-0.3,1.1-0.2,1.4,0.3l0,0c0.3,0.5,0.2,1.1-0.3,1.4l0,0c-0.2,0.1-0.4,0.2-0.6,0.2l0,0
	C6.4,55.8,6.1,55.7,5.9,55.4z M64.1,55.5c-0.5-0.3-0.6-0.9-0.3-1.4l0,0c0.3-0.5,0.9-0.6,1.4-0.3l0,0c0.5,0.3,0.6,0.9,0.3,1.4l0,0
	c-0.2,0.3-0.5,0.5-0.8,0.5l0,0C64.5,55.7,64.3,55.6,64.1,55.5z M3.8,51.8L3.8,51.8L3.8,51.8c-0.2-0.5,0-1.1,0.4-1.3l0,0
	c0.5-0.2,1.1-0.1,1.3,0.4l0,0c0.2,0.5,0,1.1-0.5,1.3l0,0c-0.1,0.1-0.3,0.1-0.4,0.1l0,0C4.3,52.4,4,52.1,3.8,51.8z M66.2,52.1
	c-0.5-0.2-0.7-0.9-0.5-1.3l0,0c0.2-0.5,0.8-0.7,1.3-0.4l0,0c0.5,0.2,0.7,0.9,0.4,1.3l0,0c-0.2,0.4-0.5,0.6-0.9,0.6l0,0
	C66.5,52.2,66.4,52.1,66.2,52.1z M2.1,48c-0.2-0.5,0.1-1.1,0.6-1.3l0,0c0.5-0.2,1.1,0.1,1.3,0.6l0,0c0.2,0.5-0.1,1.1-0.6,1.3l0,0
	c-0.1,0-0.2,0.1-0.3,0.1l0,0C2.7,48.6,2.3,48.4,2.1,48z M67.9,48.4c-0.5-0.2-0.8-0.8-0.6-1.3l0,0c0.2-0.5,0.8-0.8,1.3-0.6l0,0
	c0.5,0.2,0.8,0.8,0.6,1.3l0,0c-0.2,0.4-0.5,0.7-0.9,0.7l0,0C68.2,48.5,68,48.4,67.9,48.4z M1,44c-0.1-0.5,0.2-1.1,0.7-1.2l0,0
	c0.5-0.1,1.1,0.2,1.2,0.7l0,0C3,44,2.7,44.6,2.2,44.7l0,0c-0.1,0-0.1,0-0.2,0l0,0C1.5,44.8,1.1,44.5,1,44z M69.2,44.6
	c-0.5-0.1-0.9-0.7-0.8-1.2l0,0c0.1-0.5,0.7-0.9,1.2-0.7l0,0c0.5,0.1,0.9,0.7,0.8,1.2l0,0l0,0l0,0c-0.1,0.5-0.5,0.8-1,0.8l0,0
	C69.3,44.6,69.3,44.6,69.2,44.6z M0.2,39.9L0.2,39.9L0.2,39.9c-0.1-0.5,0.3-1,0.9-1.1l0,0c0.5-0.1,1,0.3,1.1,0.9l0,0
	c0.1,0.5-0.3,1-0.9,1.1l0,0H1.2l0,0C0.7,40.8,0.3,40.5,0.2,39.9z M70,40.6c-0.5-0.1-0.9-0.5-0.9-1.1l0,0c0.1-0.5,0.6-0.9,1.1-0.9
	l0,0c0.5,0.1,0.9,0.6,0.9,1.1l0,0C71,40.2,70.6,40.6,70,40.6L70,40.6L70,40.6z M0,35.8L0,35.8L0,35.8c0-0.1,0-0.1,0-0.1l0,0
	c0-0.6,0.5-1,1-1l0,0c0.5,0,1,0.4,1,1l0,0c0,0,0,0,0,0.1l0,0c0,0,0,0,0,0.1l0,0c0,0.6-0.4,1-1,1l0,0C0.4,36.8,0,36.4,0,35.8z
	 M69.3,35.6c0-0.5,0.4-1,1-1l0,0c0.6,0,1,0.5,1,1l0,0c0,0.6-0.4,1-1,1l0,0C69.8,36.6,69.3,36.1,69.3,35.6z M1.1,32.6
	c-0.5-0.1-0.9-0.6-0.9-1.1l0,0c0.1-0.5,0.6-0.9,1.1-0.9l0,0c0.5,0.1,0.9,0.6,0.9,1.1l0,0C2.1,32.2,1.7,32.6,1.1,32.6L1.1,32.6
	C1.1,32.6,1.1,32.6,1.1,32.6z M69.1,31.7c-0.1-0.5,0.3-1,0.9-1.1l0,0c0.6-0.1,1.1,0.3,1.1,0.9l0,0c0.1,0.6-0.3,1.1-0.9,1.1l0,0h-0.1
	l0,0C69.6,32.6,69.2,32.2,69.1,31.7z M1.7,28.6c-0.5-0.1-0.9-0.7-0.7-1.2l0,0c0.1-0.5,0.7-0.9,1.2-0.7l0,0c0.5,0.1,0.9,0.7,0.7,1.2
	l0,0c-0.1,0.5-0.5,0.8-1,0.8l0,0C1.8,28.7,1.7,28.7,1.7,28.6z M68.4,27.8c-0.1-0.5,0.2-1.1,0.7-1.2l0,0c0.5-0.1,1.1,0.2,1.2,0.7l0,0
	c0.1,0.5-0.2,1.1-0.8,1.2l0,0c-0.1,0-0.2,0-0.2,0l0,0C68.9,28.6,68.5,28.3,68.4,27.8z M2.7,24.7c-0.5-0.2-0.8-0.8-0.6-1.3l0,0
	c0.2-0.5,0.8-0.8,1.3-0.6l0,0C3.9,23,4.2,23.6,4,24.1l0,0c-0.1,0.4-0.5,0.6-0.9,0.6l0,0C2.9,24.8,2.8,24.8,2.7,24.7z M67.3,24.1
	c-0.2-0.5,0.1-1.1,0.6-1.3l0,0c0.5-0.2,1.1,0.1,1.3,0.6l0,0c0.2,0.5-0.1,1.1-0.6,1.3l0,0c-0.1,0-0.2,0.1-0.4,0.1l0,0
	C67.8,24.7,67.4,24.5,67.3,24.1z M4.2,21c-0.5-0.2-0.7-0.9-0.4-1.4l0,0c0.2-0.5,0.8-0.7,1.3-0.4l0,0c0.5,0.2,0.7,0.9,0.4,1.3l0,0
	c-0.2,0.4-0.5,0.6-0.9,0.6l0,0C4.5,21.1,4.3,21.1,4.2,21z M65.7,20.5L65.7,20.5c-0.2-0.5,0-1.1,0.5-1.3l0,0c0.5-0.2,1.1,0,1.3,0.4
	l0,0c0.2,0.5,0,1.1-0.4,1.3l0,0C66.9,21,66.8,21,66.6,21l0,0C66.3,21,65.9,20.8,65.7,20.5z M6.1,17.4c-0.5-0.3-0.6-0.9-0.3-1.4l0,0
	c0.3-0.5,0.9-0.6,1.4-0.3l0,0c0.5,0.3,0.6,0.9,0.3,1.4l0,0c-0.2,0.3-0.5,0.4-0.8,0.4l0,0C6.5,17.6,6.3,17.6,6.1,17.4z M63.8,17.1
	L63.8,17.1c-0.3-0.5-0.2-1.1,0.3-1.4l0,0c0.5-0.3,1.1-0.2,1.4,0.3l0,0c0.3,0.5,0.2,1.1-0.3,1.4l0,0c-0.2,0.1-0.4,0.2-0.5,0.2l0,0
	C64.3,17.6,64,17.4,63.8,17.1z M8.4,14.1c-0.4-0.4-0.5-1-0.1-1.4l0,0c0.4-0.4,1-0.5,1.4-0.1l0,0c0.4,0.4,0.5,1,0.1,1.4l0,0
	c-0.2,0.2-0.5,0.4-0.8,0.4l0,0C8.8,14.4,8.6,14.3,8.4,14.1z M61.4,14c-0.4-0.4-0.3-1,0.1-1.4l0,0c0.4-0.4,1.1-0.3,1.4,0.1l0,0
	c0.4,0.4,0.3,1.1-0.1,1.4l0,0c-0.2,0.2-0.4,0.2-0.6,0.2l0,0C61.9,14.3,61.6,14.2,61.4,14z M11.1,11.1c-0.4-0.4-0.4-1,0-1.4l0,0
	c0.4-0.4,1-0.4,1.4,0l0,0c0.4,0.4,0.4,1,0,1.4l0,0c-0.2,0.2-0.4,0.3-0.7,0.3l0,0C11.6,11.4,11.3,11.3,11.1,11.1z M58.7,11.1
	c-0.4-0.4-0.4-1,0-1.4l0,0c0.4-0.4,1-0.4,1.4,0l0,0c0.4,0.4,0.4,1,0,1.4l0,0c-0.2,0.2-0.5,0.3-0.7,0.3l0,0
	C59.2,11.4,58.9,11.3,58.7,11.1z M14.1,8.4C13.8,8,13.9,7.3,14.3,7l0,0c0.5-0.3,1.1-0.2,1.4,0.2l0,0c0.3,0.4,0.2,1.1-0.2,1.4l0,0
	c-0.2,0.1-0.4,0.2-0.6,0.2l0,0C14.6,8.8,14.3,8.7,14.1,8.4z M55.7,8.6c-0.4-0.3-0.5-0.9-0.2-1.4l0,0c0.3-0.4,1-0.5,1.4-0.2l0,0l0,0
	l0,0c0.4,0.3,0.5,1,0.2,1.4l0,0c-0.2,0.3-0.5,0.4-0.8,0.4l0,0C56.1,8.8,55.9,8.7,55.7,8.6z M17.4,6.1c-0.3-0.5-0.1-1.1,0.4-1.4l0,0
	l0,0l0,0c0.5-0.3,1.1-0.1,1.4,0.4l0,0c0.3,0.5,0.1,1.1-0.4,1.4l0,0c-0.2,0.1-0.3,0.1-0.5,0.1l0,0C17.9,6.6,17.6,6.4,17.4,6.1z
	 M52.5,6.5c-0.5-0.3-0.7-0.9-0.4-1.4l0,0c0.3-0.5,0.9-0.7,1.4-0.4l0,0C54,5,54.1,5.6,53.9,6.1l0,0c-0.2,0.3-0.5,0.5-0.9,0.5l0,0
	C52.8,6.6,52.6,6.5,52.5,6.5z M21,4.2c-0.2-0.5,0-1.1,0.5-1.3l0,0c0.5-0.2,1.1,0,1.3,0.5l0,0c0.2,0.5,0,1.1-0.5,1.3l0,0
	c-0.1,0.1-0.3,0.1-0.4,0.1l0,0C21.5,4.8,21.1,4.6,21,4.2z M49,4.7c-0.5-0.2-0.7-0.8-0.5-1.3l0,0c0.2-0.5,0.8-0.7,1.3-0.5l0,0
	c0.5,0.2,0.7,0.8,0.5,1.3l0,0c-0.2,0.4-0.5,0.6-0.9,0.6l0,0C49.2,4.8,49.1,4.8,49,4.7z M24.7,2.7c-0.2-0.5,0.1-1.1,0.7-1.2l0,0
	c0.5-0.2,1.1,0.1,1.2,0.7l0,0c0.2,0.5-0.1,1.1-0.7,1.2l0,0c-0.1,0-0.2,0-0.3,0l0,0C25.2,3.4,24.8,3.1,24.7,2.7z M45.3,3.4L45.3,3.4
	c-0.5-0.2-0.8-0.7-0.7-1.2l0,0c0.2-0.5,0.7-0.8,1.2-0.7l0,0c0.5,0.1,0.8,0.7,0.7,1.2l0,0c-0.1,0.4-0.5,0.7-1,0.7l0,0
	C45.5,3.4,45.4,3.4,45.3,3.4z M28.6,1.7c-0.1-0.5,0.3-1.1,0.8-1.2l0,0l0,0l0,0c0.5-0.1,1.1,0.3,1.2,0.8l0,0c0.1,0.5-0.3,1.1-0.8,1.2
	l0,0c-0.1,0-0.1,0-0.2,0l0,0C29.1,2.5,28.7,2.2,28.6,1.7z M41.5,2.5c-0.5-0.1-0.9-0.6-0.8-1.2l0,0c0.1-0.5,0.6-0.9,1.2-0.8l0,0l0,0
	l0,0c0.5,0.1,0.9,0.6,0.8,1.2l0,0c-0.1,0.5-0.5,0.8-1,0.8l0,0C41.6,2.5,41.5,2.5,41.5,2.5z M32.6,1.1c0-0.6,0.4-1,0.9-1.1l0,0l0,0
	l0,0c0.5,0,1,0.4,1.1,0.9l0,0c0,0.5-0.4,1-0.9,1.1l0,0c0,0,0,0-0.1,0l0,0C33.1,2,32.6,1.6,32.6,1.1z M37.6,2c-0.5,0-1-0.5-0.9-1l0,0
	c0-0.6,0.5-1,1.1-0.9l0,0c0.6,0,1,0.5,0.9,1l0,0C38.6,1.6,38.2,2,37.6,2L37.6,2L37.6,2z"/>
<g>
	<g>
		<path class="st1" d="M35.6,33.6c-4.2,0-7.6-3.4-7.6-7.6s3.4-7.6,7.6-7.6s7.6,3.4,7.6,7.6S39.8,33.6,35.6,33.6z M35.6,19.5
			c-3.6,0-6.6,3-6.6,6.6s3,6.6,6.6,6.6s6.6-3,6.6-6.6S39.3,19.5,35.6,19.5z"/>
		<path class="st1" d="M46.7,52.9c-0.3,0-0.5-0.2-0.5-0.5v-5.3c0-5.8-4.7-10.5-10.5-10.5s-10.5,4.7-10.5,10.5v5.3
			c0,0.3-0.2,0.5-0.5,0.5s-0.5-0.2-0.5-0.5v-5.3c0-6.3,5.2-11.5,11.5-11.5s11.5,5.2,11.5,11.5v5.3C47.2,52.6,46.9,52.9,46.7,52.9z"
			/>
		<g>
			<path class="st1" d="M42.7,52.9c-0.3,0-0.5-0.2-0.5-0.5v-5.2c0-0.3,0.2-0.5,0.5-0.5s0.5,0.2,0.5,0.5v5.2
				C43.2,52.6,43,52.9,42.7,52.9z"/>
			<path class="st1" d="M28.6,52.9c-0.3,0-0.5-0.2-0.5-0.5v-5.2c0-0.3,0.2-0.5,0.5-0.5s0.5,0.2,0.5,0.5v5.2
				C29.1,52.6,28.8,52.9,28.6,52.9z"/>
		</g>
	</g>
	<g>
		<g>
			<path class="st1" d="M50.5,34.3c-3.1,0-5.6-2.5-5.6-5.6s2.5-5.6,5.6-5.6s5.6,2.5,5.6,5.6S53.6,34.3,50.5,34.3z M50.5,24.1
				c-2.5,0-4.6,2.1-4.6,4.6s2.1,4.6,4.6,4.6s4.6-2.1,4.6-4.6S53.1,24.1,50.5,24.1z"/>
			<path class="st1" d="M58.5,48.2c-0.3,0-0.5-0.2-0.5-0.5v-3.8c0-4.1-3.3-7.4-7.4-7.4c-2.6,0-4.9,1.3-6.3,3.5
				c-0.1,0.2-0.5,0.3-0.7,0.2s-0.3-0.5-0.2-0.7c1.6-2.5,4.2-4,7.2-4c4.7,0,8.4,3.8,8.4,8.4v3.8C59,48,58.7,48.2,58.5,48.2z"/>
			<g>
				<path class="st1" d="M55.6,48.2c-0.3,0-0.5-0.2-0.5-0.5v-3.8c0-0.3,0.2-0.5,0.5-0.5s0.5,0.2,0.5,0.5v3.8
					C56.1,48,55.9,48.2,55.6,48.2z"/>
			</g>
		</g>
		<g>
			<path class="st1" d="M20.8,34.3c-3.1,0-5.6-2.5-5.6-5.6s2.5-5.6,5.6-5.6s5.6,2.5,5.6,5.6S23.9,34.3,20.8,34.3z M20.8,24.1
				c-2.5,0-4.6,2.1-4.6,4.6s2.1,4.6,4.6,4.6s4.6-2.1,4.6-4.6C25.4,26.2,23.3,24.1,20.8,24.1z"/>
			<g>
				<path class="st1" d="M12.8,48.2c-0.3,0-0.5-0.2-0.5-0.5v-3.8c0-4.7,3.8-8.4,8.4-8.4c2.9,0,5.6,1.5,7.2,4
					c0.1,0.2,0.1,0.5-0.2,0.7c-0.2,0.1-0.5,0.1-0.7-0.2c-1.4-2.2-3.7-3.5-6.3-3.5c-4.1,0-7.4,3.3-7.4,7.4v3.8
					C13.3,48,13.1,48.2,12.8,48.2z"/>
				<g>
					<path class="st1" d="M15.7,48.2c-0.3,0-0.5-0.2-0.5-0.5v-3.8c0-0.3,0.2-0.5,0.5-0.5s0.5,0.2,0.5,0.5v3.8
						C16.2,48,15.9,48.2,15.7,48.2z"/>
				</g>
			</g>
		</g>
	</g>
</g>
</svg>
